<?xml version="1.0" encoding="UTF-8"?><svg id="Layer_1" xmlns="http://www.w3.org/2000/svg" width="435.05" height="519.81" xmlns:xlink="http://www.w3.org/1999/xlink" viewBox="0 0 435.05 519.81"><defs><style>.cls-1{clip-path:url(#clippath);}.cls-2{fill:none;}.cls-2,.cls-3,.cls-4,.cls-5,.cls-6{stroke-width:0px;}.cls-7{clip-path:url(#clippath-1);}.cls-3{fill:#434343;}.cls-4{fill:#e0dfdc;}.cls-5{fill:#c6c5be;}.cls-6{fill:#bcbbb6;}</style><clipPath id="clippath"><rect class="cls-2" x="4.22" y="9.68" width="427" height="507"/></clipPath><clipPath id="clippath-1"><rect class="cls-2" x="4.22" y="3.18" width="427" height="507"/></clipPath></defs><rect class="cls-2" x="-142.76" y="-6.08" width="721" height="514"/><g class="cls-1"><path class="cls-4" d="m153.11,401.63c-1.49.38-1.74,1.75-2.32,2.87-8.46,16.45-14.76,33.83-22.09,50.77-3.97,9.19-7.96,18.38-12.96,27.08-1.16,2.02-5.22,2.72-7.11,1.36-1.19-.86-1.06-1.79-.35-2.6,4.14-4.76,6.31-10.7,9.21-16.12,2.53-4.72,5.22-9.49,6.84-14.81,1.94-6.37,3.17-13.23,7.94-18.44,1.07-1.17.87-2.64,1.26-3.96,1.57-5.45,4.64-10.22,6.85-15.37,4.34-10.14,8.71-20.27,12.4-30.78-3.24,5.33-7,10.43-9.56,16.07-2.34,5.17-5.43,9.83-8.17,14.72-3.37,6.04-6.79,12.06-10.5,17.89-6.93,10.91-11.38,22.9-15.75,34.94-1.49,4.09-2.57,8.31-4.6,12.23-1.26,2.43-2.03,2.08-3.35.17-1.29-1.87-3.3-3.43-1.63-6.21-1.68-.25-3.32,1.13-4.28-1.01-.5-1.12-1.77-.92-3.06-.58-4.5,1.2-6.26-.6-4.61-4.97,1.76-4.66,4.01-9.13,6.06-13.67,2.05-4.55,4.28-9.02,6.16-13.63,3.72-9.14,7.63-18.17,12.4-26.82,6.7-12.14,12.83-24.59,20.19-36.37.52-.84.71-1.88,1.41-3.79-3.02,2.54-3.95,5.33-5.32,7.73-7.38,12.93-16.33,24.88-23.74,37.79-7.65,13.33-15.35,26.62-23.91,39.4-.35.53-.58,1.14-.88,1.71-.84,1.59-1.27,4.46-3.72,3.1-1.8-1-3.83-2.78-2.4-5.98,3.77-8.45,9.51-15.68,14.05-23.64,3.01-5.27,5.88-10.67,9.4-15.59,2.52-3.54,3.56-7.97,7.62-10.79,1.5-1.04,2.64-4.61,3.89-7.05,2.53-4.94,6.04-9.11,9.34-13.5,3.72-4.96,6.42-10.67,8.68-16.49.9-2.32,2.25-4.26,3.73-6.18.88-1.14,2.3-2.02,2.19-3.79-1.44-.21-2.03.76-2.57,1.54-4.63,6.61-11.18,11.59-15.58,18.42-4.91,7.62-11.3,14.14-16.06,21.94-4.66,7.64-9.18,15.41-14.33,22.71-1.38,1.95-2.63,3.98-3.99,5.93-1.14,1.64-2.07,3.14-2.08,5.15,0,1.09-.57,1.94-1.2,2.78-2.85,3.8-4.89,8.06-6.91,12.32-1.09,2.29-3.3,2.75-5.23,1.99-2.23-.88-2.09-3.07-1.06-4.93,4.22-7.63,8.46-15.24,12.81-22.8,4.91-8.53,9.57-17.24,15-25.43,6.22-9.39,12.92-18.47,20.16-27.13,8.53-10.21,17.03-20.44,25.53-30.66.38-.46,1.01-.85.48-1.85-1.97.08-2.23,2.13-3.29,3.16-8.92,8.67-17.59,17.6-25.99,26.77-2.48,2.7-3.88,6.45-7.67,7.88.92,4.68-4.2,5.48-5.67,8.76-1.12,2.52-2.41,5.4-5.76,6.29-1.86.49-1.19,2.81-2.31,4.17-5.67,6.93-10.52,14.48-16.17,21.47-5.11,6.33-8.95,13.7-13.1,20.76-1.55,2.64-3,3.62-5.65,1.65-2.48-1.85-.86-3.57.18-5.23,8.77-13.9,18.15-27.38,28.16-40.41,5.07-6.6,10.24-13.12,15.41-19.65.7-.88,1.73-1.52,1.37-3.35-5.81,6.63-11.55,12.9-16.98,19.42-8.29,9.95-16.38,20.06-24.53,30.12-1.29,1.59-2.24,3.53-3.74,4.85-1.18,1.04-2.22,4.21-4.45,1.87-1.58-1.67-3.6-3.81-1.15-6.67,4.58-5.36,8.9-10.94,13.43-16.35,10.19-12.18,20.07-24.62,30.68-36.45.85-.95,3.33-1.97,2.41-2.81-1.79-1.65-2.64,1.16-3.67,2.04-15.94,13.54-29.74,29.23-44.22,44.24-1.41,1.46-2.87,3.17-4.93,1.58-2.28-1.76-1.76-3.41.17-5.72,9.21-11.05,19.66-20.93,29.36-31.51,8.33-9.09,18.19-16.6,27.5-24.67,11.97-10.38,24.08-20.63,35.6-31.5,4.29-4.04,8.64-7.94,13.12-11.8-7.27,3.75-14.34,7.8-21.09,12.42-15.37,10.52-30.19,21.77-44.34,33.86-9.05,7.74-17.61,16.05-26.66,23.8-5.84,5-11.83,9.79-17.21,15.3-.71.73-1.5,1.55-2.41,1.89-1.46.54-3.03,3.27-4.4,1.07-1.3-2.08-2.32-4.91.55-7.25,8.3-6.77,16.81-13.32,24.65-20.6,7.44-6.92,14.67-14.09,22.34-20.75,2.19-1.9,4.91-3.08,6.11-6.92-6.94,5.11-13.12,10.04-19.71,14.35-2.96,1.93-4.43,5.35-7.5,6.79-4.87,2.28-8.06,6.48-12.11,9.66-2.72,2.13-6.12,3.38-8.84,5.68-.94.79-2,1.29-2.86,2.35-2.36,2.93-6.28,2.63-8.34-.4-1-1.47.27-2.02,1.19-2.69,6.88-4.93,13.97-9.61,20.61-14.85,14.11-11.15,28.68-21.64,43.4-31.96.66-.46,1.56-.86,1.25-2.34-2.58,3.35-7.65,2.08-9.95,5.94-.23.38-.83.6-1.3.77-7.75,2.79-14.23,7.83-21.2,12-2.88,1.73-6.37,2.69-8.95,4.35-4.59,2.95-9.76,4.91-14.04,8.41-3.32,2.71-7.02,5.01-10.72,7.21-1.44.86-3.15,2.98-5.11.2-1.86-2.63-1.28-4.37,1.25-5.98,10.83-6.88,21.85-13.4,33.23-19.39,8.81-4.64,17.03-10.42,25.81-15.21,4.59-2.5,8.98-5.36,13.16-8.76-3.08,1.19-6.54,1.83-9.14,3.69-4.55,3.25-9.74,5.12-14.58,7.72-13.54,7.29-27.57,13.67-40.58,21.97-3,1.91-6.69,2.57-9.55,4.85-1.93,1.54-2.42-.88-3.12-1.62-.99-1.02-.22-2.31.97-3.12,5.09-3.49,10.59-6.27,15.98-9.25,11.07-6.13,22.21-12.14,33.16-18.49,4.04-2.35,8.54-4,12.96-7.74-5.08.71-8.68,2.76-12.55,3.93-14.16,4.27-27.33,10.96-40.85,16.8-3.29,1.42-6.39,3.14-9.42,5-1.92,1.18-3.52.26-5.05-.52-.9-.46-1.27-2.41-.66-2.69,1.88-.85,2.26-3.03,4.06-3.87,8.36-3.92,16.59-8.13,25.06-11.81,4.24-1.84,8.39-4.39,13.35-4.04.25.02.61.05.74-.09,4.6-4.87,11.43-4.53,16.84-7.22,8.12-4.05,16.9-5.7,25.29-8.67,12.01-4.26,24.3-7.72,36.65-11.05-5.78-.49-11.4.64-16.98,1.84-21.85,4.71-43.06,11.67-64.36,18.34-5.52,1.73-11.41,2.88-16.73,4.68-7.66,2.6-15.98,4.57-22.57,9.88-1.84,1.48-3.69,1.82-4.91-.06-1.29-1.99-.82-4.1,1.47-5.6,6.39-4.18,13.29-7.32,20.58-9.36,14.77-4.14,29.19-9.32,43.82-13.88,5.72-1.78,11.55-3.22,17.27-5.09-5.89-.14-11.72,1.03-17.1,2.9-7.68,2.66-15.8,3.19-23.43,5.83-12.71,4.41-25.97,7.2-38.26,12.87-.7.32-1.43.67-2.17.76-1.56.2-3.19.31-3.82-1.65-.6-1.85.39-2.92,1.98-3.61,3.17-1.38,6.34-2.9,9.77-3.34,3.51-.44,6.04-3.22,9.32-3.72,6.94-1.08,13.44-3.72,20.16-5.51,6.57-1.75,13.23-3.36,19.7-5.55,9.63-3.27,19.73-4.15,29.7-5.75.34-.05.67-.21,1.32-.42-2.25-2.36-5.43-1.64-7.46-1.68-7.42-.17-14.88.61-22.31,1.34-8.1.79-15.63,3.8-23.62,4.83-2.71.35-5.59,1.31-7.82,2.83-1.61,1.1-3.7-1.86-4.53,1-5.05-.93-7.73,4.18-12.4,4.78-3.22.41-6.76.61-9.74,2.68-1.34.93-3.81.12-4.27-.79-.87-1.68,1.29-2.51,2.49-3.21,7.15-4.2,15.14-6.36,22.93-8.86,12.97-4.17,26.28-7.09,39.67-9.59.46-.09.88-.39,1.89-.85-4.89-1.93-9.53-1.39-13.97-1.65-9.6-.56-19.24-.35-28.83.47-3.71.32-7.25,1.58-10.84,2.58-1.31.37-3.01,2.17-4.36-.16-.11-.19-.44-.44-.59-.39-.77.22-.21.82-.29,1.25-.32,1.6-1.77,2.03-2.93,2-2-.05-2.71-2-3.81-3.35-1.06-1.29-.29-2.14.49-3,1.64-1.8,3.97-2.21,6.12-3.03,12.67-4.86,25.88-4.58,39.13-4.55,15.6.03,30.98,2.02,46.31,4.48,11.27,1.8,22.39,4.62,33.69,6.05,7.45.94,15.14,1.1,22.66-.25,4.59-.82,8.24-3.64,11.61-6.59,3.51-3.07,3.26-8.18-.64-11.05-6.59-4.85-13.87-8.44-22.25-8.77-16.05-.63-32.12-.86-48.17-1.63-22.95-1.1-45.94-1.42-68.84-3.68-5.49-.54-10.7-2.62-16.32-2.38-1.97.09-2.02-2.03-2.04-3.52-.03-1.42,1.08-1.61,2.2-1.34,11.48,2.78,23.13.75,34.68,1.32,5.46.27,10.94.76,16.4,1.24,5.36.47,10.83-.36,16.3-.88-6.53-2.24-13.34-2.98-20.12-3.84-15.55-1.97-31.11-3.88-46.66-5.83-1.65-.21-3.77-.32-3.28-2.73.46-2.24,2.26-1.68,4.01-1.32,9.2,1.9,18.6,2.32,27.91,3.31,8.4.9,16.7,2.72,25.18,2.87.73.01,1.48.43,2.48-.49-3.13-2.08-6.57-2.6-9.91-3.5-13.44-3.61-27.4-5.12-40.47-10.21-1.51-.59-3.28-.51-4.94-.73-1.33-.18-3.03.21-2.93-2.05.09-1.94,1.47-2.8,3.01-2.94,1.34-.12,2.8.31,4.1.79,9.06,3.37,18.52,5.07,27.93,7.08,19.5,4.16,38.95,8.58,58.43,12.87,1.37.3,2.76.47,4.19.54-8.13-3.25-16.66-5.16-25.08-7.4-17.11-4.54-34.07-9.56-50.81-15.3-5.83-2-11.71-3.85-17.59-5.7-2.29-.72-3.73-2.02-2.91-4.5.86-2.6,2.95-1.39,4.57-1,13.37,3.24,26.38,7.7,39.58,11.54,9.45,2.75,18.95,5.36,28.7,7.32-4.6-1.75-9.2-3.49-13.8-5.25-10.82-4.14-21.71-8.12-32.45-12.47-8.29-3.35-16.34-7.23-23.61-12.59-1.63-1.2-2.1-2.48-1.84-4.24.47-3.12,1.4-3.35,4.04-1.49,4.95,3.48,10.32,6.22,15.92,8.55,18.7,7.79,37.67,14.88,56.78,21.56,9.72,3.4,19.69,6.12,29.58,9.02,3.09.91,5.81,3.13,9.73,2.92-1.63-3.02-4.59-3.45-6.81-4.19-19.01-6.38-37.9-12.95-56.16-21.38-12.46-5.75-24.6-12.06-36.66-18.56-3.76-2.03-7.04-4.7-10.35-7.36-1.41-1.13-1.74-2.29-.8-3.97.87-1.55,1.46-2.06,3.14-.77,12.45,9.55,26.91,15.47,40.81,22.42.31.16.74.1,1.15.15-.92-1.56-3.43-3.71-5.63-4.92-11.06-6.06-21.26-13.34-30.64-21.74-1.8-1.61-3.32-3.58-4.73-5.56-.71-1-1.23-2.57-.19-3.6,1.28-1.27,2.31.13,3.24.89,17.26,13.91,35.7,26.03,55.23,36.51,4.09,2.19,8.04,4.73,12.87,6.4-.69-2.81-3.07-3.29-4.58-4.26-14.48-9.26-28.63-18.99-42.51-29.11-7.33-5.34-14.79-10.59-20.06-18.24-.65-.95-1.5-1.78-1.56-3.03-.07-1.45-.05-3.14,1.21-3.88,1.63-.96,1.99,1.09,2.74,1.88,7.85,8.26,17.02,14.86,26.41,21.18,8.95,6.03,17.98,11.95,26.99,17.9.51.33,1.14.48,1.86.76-.36-5.61-5.68-6.06-8.64-8.75-5.32-4.84-12.76-7.17-16.53-13.91-.75-1.35-2.52-1.24-3.56-2.15-7.6-6.71-16.29-12.28-22.14-20.85-.5-.74-1.07-1.48-1.37-2.3-.39-1.06,0-2.09.9-2.73.91-.66,1.69-.03,2.38.59,5.15,4.65,10.4,9.2,15.42,13.99,4.42,4.22,9.13,8.07,14.33,11.37-4.33-4.09-8.72-8.11-12.96-12.29-4.75-4.69-9.4-9.48-13.98-14.33-.87-.93-2.88-1.98-.96-3.75,1.64-1.51,3.25-1.19,4.79.23,5.07,4.73,10.08,9.51,15.22,14.16,7.73,6.98,15.55,13.86,23.34,20.79.38.34.77.68,1.74.05-3.99-3.98-7.2-8.49-11.11-12.52-8.28-8.51-17.05-16.61-23.88-26.44-1-1.43-1.88-2.83-3.68-3.73-2.91-1.47-1.91-4.59-1.21-6.69.62-1.85,2.27-.6,3.25.57,4.29,5.11,8.45,10.34,12.93,15.27,4.88,5.37,10.18,10.35,15.09,15.7,5.28,5.76,11.2,10.86,16.31,16.89,3.49,4.12,7.45,8.29,11.62,12.06,4.78,4.33,10.69,7.5,14.19,13.2,5.21.47,7.61,5.68,12.79,6.67-2.45-2.36-4.94-4.68-7.34-7.09-8.18-8.26-17.19-15.62-25.29-24-11.8-12.2-21.78-26.02-34.29-37.58-4.57-4.22-8.47-9.21-12.43-14.04-1.1-1.34-1.21-3.52-.17-5.13.96-1.49,1.77-3.27,4-.4,6.38,8.22,13.8,15.56,20.91,23.16,4.73,5.06,9.26,10.3,13.86,15.47.75.84,1.4,1.77,2.09,2.67l.91-.84c-3.95-4.85-7.95-9.65-11.84-14.54-7.64-9.6-15.25-19.22-22.81-28.88-1.01-1.29-1.91-2.77-2.07-4.5-.11-1.19.04-2.5,1.23-3.01,1.22-.53,1.73.72,2.37,1.49,10.79,12.73,21.73,25.34,32.08,38.44.36.46.67,1.11,1.99.82-3.49-4.93-6.79-9.74-10.23-14.44-6.89-9.4-13.96-18.68-20.69-28.2-.84-1.19-4.65-1.45-2.07-4.44,1.79-2.07,4.72-2.25,5.99.24,3.91,7.65,10.42,13.28,15.19,20.28,6.64,9.74,13.95,19.01,20.96,28.5.3.4.42.94.62,1.42.35-.29.7-.58,1.06-.87-2.92-4.39-5.94-8.71-8.74-13.17-7.09-11.29-14.04-22.67-21.12-33.96-1.56-2.5-3.48-4.77-5.09-7.25-1.12-1.72-2.51-3.8-.1-5.39,2.38-1.57,3.57.3,4.75,2.21,4.05,6.55,8.85,12.6,12.8,19.23,8.65,14.51,18.24,28.43,28.03,42.17,6.97,9.79,15.09,18.74,22.28,28.38,7.64,10.24,15.91,19.94,24.17,29.67.75.89,1.58,1.66,3.8,1.88-4.21-4.56-6.76-9.39-10.42-13.63-3.25-3.78-7.11-7.52-8.32-12.93-.43-1.91-2.36-3.55-3.79-5.15-5.71-6.4-9.93-13.9-15.25-20.55-3.28-4.1-6.18-8.43-9.14-12.72-4.46-6.46-8.55-13.23-13.12-19.55-3.76-5.19-6.77-10.78-10.38-16.01-5.74-8.31-11.16-16.84-15.73-25.88-.7-1.39-1.11-2.65-.32-3.97.5-.85,1.23-1.85,2.08-2.14,1.29-.44,1.57,1.07,2.05,1.85,10.31,16.87,20.97,33.52,31.92,49.98,3.04,4.57,6.33,8.97,10,13.18-2.29-4.57-4.25-9.35-6.95-13.67-3.33-5.32-6.2-10.88-9.06-16.43-6.64-12.86-13.01-25.85-19.49-38.79-.34-.69-.61-1.41-.88-2.13-.77-2.07.33-3.05,2.08-3.82,1.92-.84,2.6.05,3.49,1.66,10.1,18.48,19.17,37.51,29.65,55.79.24.42.52.81,1.21,1.89.42-4.69-2.41-7.47-3.71-10.66-4.22-10.42-8.45-20.84-12.85-31.18-3.19-7.49-5.61-15.12-7.86-22.87-.25-.86-.53-1.76-.51-2.63.03-1.51,1.18-2.25,2.47-2.59,1.55-.42,1.9.72,2.26,1.93,4.25,14.33,10.48,27.86,16.36,41.56,8.62,20.07,18.35,39.62,27.81,59.29,1.82,3.78,4.36,7.21,6.94,11.41-.01-2.95-1.65-4.36-2.58-6.07-4.21-7.78-7.58-15.93-11.16-24.01-3.88-8.76-7.89-17.5-11.54-26.36-5.81-14.1-11.28-28.33-14.89-43.22-1.08-4.47-2.91-8.75-4.02-13.21-.66-2.66-2.48-6.48,1.57-7.6,3.93-1.09,3.72,3.19,4.36,5.44,9.67,34.11,23.63,66.55,38.53,98.59,3.77,8.1,8.92,15.56,13.69,23.21-.16-4.13-2.29-7.65-3.54-11.4-5.95-17.86-12.56-35.48-19.16-53.11-4.93-13.15-12.06-25.28-16.6-38.57-2.82-8.25-6.01-16.37-8.25-24.82-.63-2.39.09-3.61,2.26-4.47,2.64-1.04,2.79,1.17,3.28,2.56,3.12,8.7,6,17.5,9.69,25.99,5.53,12.72,11.06,25.44,16.67,38.12,5.83,13.16,9.64,27.1,15.64,41.07.32-3.41-1.07-5.71-1.61-8.12-1.72-7.7-3.85-15.3-6.43-22.78-8.11-23.55-18.93-46.09-25.91-70.05-.9-3.08-1.77-6.18-2.46-9.31-.28-1.29-.66-3.02,1.25-3.55,1.71-.48,3.41-.35,4.19,1.65.75,1.91,1.47,3.84,2.08,5.8,4.23,13.49,9.15,26.72,14.64,39.75.15.35.31.69,1.19.63-.79-3.95-1.65-7.9-2.37-11.87-2.29-12.77-5.06-25.47-5.91-38.46-.13-2.05-.4-4.15,2.28-4.43,2.52-.27,2.77,1.95,2.99,3.7,3.28,26.07,10.96,51.26,15.49,77.07,1.94,11.03,4.79,21.82,7.44,32.67.14.57.5,1.08,1.43,1.43-.99-5.12-2.08-10.22-2.96-15.35-2.67-15.56-5.18-31.17-9.51-46.37-4.34-15.24-5.21-30.86-6.26-46.49-.17-2.56-.31-5.15.62-7.64.6-1.6,1.63-2.68,3.45-2.47,1.95.23,1.36,1.92,1.48,3.05,1.82,17.26,3.55,34.57,7.96,51.37,3.63,13.81,5.91,27.84,8.38,41.85.15.88.49,1.72.93,2.55-.25-8.37-1.86-16.57-3.06-24.82-3.37-23.25-6.8-46.48-7.88-69.99-.02-.51-.04-1.03-.05-1.54-.05-1.44-.2-3.04,1.73-3.32,1.92-.28,2.92,1.14,3.21,2.69.7,3.79,1.33,7.61,1.63,11.44.99,12.67,2.66,25.24,4.53,37.81,2.12,14.28,4.75,28.47,6.47,42.82,1.08-3.94.45-7.88.16-11.79-1.5-19.86-3.21-39.71-4.57-59.59-.54-7.94-.55-15.91-1.35-23.84-.15-1.5.01-2.92,1.94-3.16,1.78-.22,2.5.89,2.96,2.39,1.48,4.85,1.88,9.85,2.12,14.86.75,15.67,2.75,31.22,4.18,46.82.83,9.08,1.42,18.19,1.91,27.3.39,7.07,1.22,14.05,3.47,20.89-.35-9.16-.75-18.32-1.03-27.48-.32-10.64-.49-21.29-.79-31.94-.31-11.16-.71-22.33-1.02-33.49-.15-5.53-.24-11.06-.26-16.58,0-1.83-.52-4.24,2.46-4.29,3.12-.05,2.84,2.48,2.86,4.46.08,6.81.24,13.62.55,20.43,1.31,28.89,2.33,57.78,3.5,86.68.94,23.31,4.05,46.43,6.46,69.61.89,8.56,3,16.99,4.96,25.43-1.42-9.35-.91-18.78-1.54-28.15-.77-11.4-.96-22.85-1.5-34.27-.76-15.91-1.61-31.83-2.42-47.74-1.22-23.74-1.85-47.51-2.46-71.27-.2-7.7-.79-15.4-.47-23.11.06-1.32-.52-3.24,1.63-3.23,1.95.01,1.78,1.87,1.87,3.24,1.34,19.23,2.96,38.44,3.41,57.73.12,5.45.62,10.9,1.17,16.33.77-11.68.3-23.35.32-35.02.01-11.95,0-23.9.08-35.85.01-1.92.27-3.85.61-5.74.25-1.4.78-2.92,2.63-2.75,2.13.19,2.17,1.87,2.04,3.48-.67,8.22-.22,16.44-.02,24.65.89,37.41,1.84,74.83,2.8,112.24.08,3.1-.7,6.33,1.15,9.81,2.18-14.07,2.34-27.58,2.05-41.19-.27-12.44.67-24.9,1.01-37.36.4-14.66-.43-29.29-.82-43.94-.21-7.84-.03-15.68-.11-23.53-.02-1.84-.03-3.37,2.41-3.46,2.76-.1,2.27,1.95,2.29,3.49.51,28.66,1.5,57.31.85,85.99-.54,23.92-1.54,47.81-2.41,71.71-.58,15.81-2.46,31.52-3.34,47.31-.07,1.27-.12,2.53-.21,4.4,1.48-1.58,1.85-3.03,1.95-4.49.43-6.27.33-12.62,1.29-18.81,1.01-6.52,2.13-13.08,3.03-19.59.71-5.14.1-10.65.5-15.98.67-8.91,2.13-17.81,2.12-26.72,0-13.6,1.38-27.12,1.52-40.7.12-11.64,1.18-23.26,1.47-34.9.22-8.71-.11-17.44-.22-26.16-.09-6.93,1.19-13.84.05-20.78-.31-1.89.98-3.46,2.81-3.46,2,0,3.08,1.45,3.06,3.65-.06,6.94.05,13.89-.05,20.84-.2,14.02.49,28.03.03,42.05-.27,8.32-.05,16.67-.05,25.07.94-1.53,1.2-3.47,1.14-5.2-.44-12.03,2.78-23.7,3.36-35.61.74-15.38,1.46-30.76,2.09-46.14.06-1.56-.09-2.94,1.83-3.14,1.75-.18,2.29.85,2.64,2.53,1.35,6.52,1.04,13.06.52,19.59-.97,12.32.03,24.7-1.43,37-2.46,20.68-3.5,41.49-5.45,62.21-1.53,16.21-3.74,32.35-5.03,48.67.95-4.57,2.54-9.11,2.7-13.71.3-8.47,2.44-16.63,3.56-24.95.92-6.82,2.37-13.56,2.55-20.48.01-.38-.01-.79.1-1.15,2.78-9.25,3.44-18.9,4.36-28.39,1.23-12.61,3.23-25.16,3.8-37.81.57-12.7,2.57-25.31,2.01-38.07-.09-2.04.92-3.18,2.91-3.32,2.23-.15,2.85,1.51,3.07,3.23.65,5.13.2,10.28,0,15.42-.68,17.35-1.96,34.66-4.35,51.87-2.07,14.9-4.05,29.8-6.03,44.71-.31,2.34-.81,4.72.03,7.92,2.2-3.84,2.01-7.48,2.6-10.74,1.08-5.95,1.6-11.92,3.46-17.82,1.53-4.83,1.14-10.26,1.62-15.43,1.02-10.98,4.89-21.47,5.57-32.53.85-13.85,2.97-27.57,4.68-41.33.27-2.19,1.3-2.42,2.98-2.54,2.09-.15,2.57.83,2.61,2.76.26,11.99-2.16,23.8-2.41,35.75-.28,13.74-4.61,26.83-6.55,40.3-.42,2.89-1.17,5.76-.94,8.87,1.21-.71,1.34-1.78,1.51-2.76,2.24-12.92,6.53-25.37,8.93-38.26,2.3-12.37,4.67-24.74,6.96-37.11.37-2,.5-3.96,3.4-3.38,2.49.5,2.82,1.95,2.52,4.26-3.75,28.85-10.42,57.1-17.43,85.28-3.29,13.21-6.15,26.53-9.26,39.78-1.23,5.22-2.59,10.41-4.06,16.26,1.97-1.91,2.17-4.05,2.74-5.89,4.32-13.81,8.8-27.58,13.34-41.32,4.22-12.77,6.73-26.04,10.44-38.95,3.56-12.38,5.9-24.97,8.62-37.51,1.11-5.11,2.09-10.25,3.2-15.37.34-1.59.52-3.46,3.07-2.89,2.27.51,2.36,2.06,2.04,3.84-1.66,9.23-3.23,18.48-5.04,27.69-4.07,20.7-10.07,40.92-15.6,61.25-.3,1.1-.51,2.23-.91,3.97,2.24-1.93,2.8-4.04,3.47-6.1,2.45-7.52,4.83-15.07,7.42-22.55,3.36-9.7,7.41-19.19,10.19-29.05,2.59-9.19,5.37-18.41,6.31-28.05.24-2.5.4-5.96,4.4-6.18,2.43-.14,3.7.81,3.15,3.43-1.5,7.17-2.75,14.41-4.53,21.51-3.35,13.35-8.73,26.03-13.27,38.98-3.39,9.64-5.86,19.61-9.62,29.15-2.44,6.18-4.88,12.37-7.22,18.59-.46,1.21-1.52,2.43-.52,4.27,5.45-9.41,9.67-19.14,13.72-28.93,6.03-14.6,12.02-29.22,17.78-43.93,4.03-10.3,6.88-20.99,9.43-31.76.26-1.09-.28-4.01,2.26-2.77,1.99.97,6.22.32,5.07,4.72-3.14,12.01-6.24,24.01-11.22,35.47-4.86,11.17-8.79,22.75-13.92,33.78-3.52,7.57-5.8,15.59-9.42,23.08-1.04,2.15-2.09,4.19-5.52,3.83,2.74,1.2,2.22,2.68,1.35,4.24-.5.89-1.04,1.78-1.44,2.71-.31.73-1.38,1.74-.14,2.29,1.72.77.92-1.03,1.22-1.61,4.08-7.74,7.87-15.64,12.19-23.24,7-12.31,12.21-25.44,17.78-38.38,4.91-11.4,9.68-22.87,13.52-34.69.4-1.22.88-2.49.89-3.74.03-3.86,1.82-4.08,4.95-3,2.24.77,2.63,1.82,2.12,3.97-1.56,6.64-3.59,13.08-6.39,19.34-4.5,10.07-8.51,20.35-12.96,30.44-5.21,11.84-10.72,23.52-16.92,34.9-5.45,10-10.76,20.07-16.44,30.03,1.53-2.02,3.17-3.97,4.58-6.08,8.79-13.14,16.65-26.81,23.55-41.04,8-16.49,16.08-32.94,24.04-49.45,2.06-4.28,3.83-8.7,5.6-13.11.77-1.91,1.42-2.16,3.31-1,3.44,2.1,4,4.02,2.19,7.96-6.76,14.66-14.15,29-21.31,43.47-2.17,4.38-4.25,8.95-5.85,13.69,3.67-3.86,6.05-8.57,8.8-13.01,7.89-12.74,15.67-25.54,23.51-38.31.78-1.28,1.49-3.01,3.51-2.09,2.31,1.06,1.15,2.86.56,4.3-3.58,8.7-8.88,16.46-13.57,24.55-5.9,10.18-12.01,20.24-18.15,30.27-2.5,4.08-5.71,7.76-7.94,11.97-4.01,7.6-9.15,14.49-14.41,21.07-6.12,7.65-10.51,16.7-18.19,23.1-1.08.9-.74,1.99-.53,3.3,10.4-11.07,19.86-22.63,28.69-34.77,9.06-12.46,17.69-25.2,26.37-37.92,7.09-10.4,14.02-20.9,20.95-31.4.83-1.26,1.37-2.75,1.89-4.19.61-1.69,1.56-2.73,3.44-2.1,1.85.61,2.66,2.05,2.22,3.93-.26,1.1-.76,2.21-1.38,3.16-11.55,17.88-22.32,36.24-34.45,53.76-8.61,12.43-17.12,24.92-26.41,36.86-1.83,2.36-4.82,3.89-5.55,7.67,2.2-.65,3.71-.95,5.13-3.05,1.31-1.94,2.38-4.84,5.71-5.18,1.34-.14.7-2.46,1.76-3.6,4.94-5.29,9.92-10.69,14.26-16.34,4.96-6.46,10.66-12.41,14.56-19.86,5.28-10.08,11.77-19.55,18.48-28.8,3.63-5,6.79-10.26,9.82-15.63.71-1.26,1.05-4.03,3.17-2.99,2.37,1.16.31,3.16-.31,4.63-3.16,7.5-7.57,14.36-12.23,20.92-6.87,9.66-12.08,20.28-18.48,30.19-4.05,6.27-8.86,11.91-13.57,17.65-1.09,1.32-2.5,2.51-2.43,5.35,6.95-9.07,15.05-16.11,21.18-24.84,9.23-13.16,18.92-26,27.32-39.72.86-1.4,1.32-3.05,2.04-4.54.55-1.14,1.41-1.86,2.79-1.34,1.43.53,1.46,1.77,1.19,2.9-.81,3.41-2.5,6.45-4.21,9.47-4.47,7.9-10.11,15.04-14.97,22.66-4.84,7.59-9.83,15-15.32,22.13-2.66,3.46-6.33,6.06-8.33,10.04-2.53,1.66-4.31,3.95-5.74,6.59,2.25-1.16,4.17-2.68,5.96-4.42,1.2-1.16.73-1.63-.35-2.22,5.38.28,5.51-5.67,9.08-7.64,4.69-2.59,6.24-8.25,11.02-11.19,2.63-1.62,4.22-5.54,6.34-8.38,6.58-8.79,13.22-17.58,18.7-27.15.61-1.06.8-3.09,2.94-1.96,1.79.95,1.65,2.43.94,3.95-.97,2.09-1.9,4.22-3.09,6.19-7.6,12.61-15.85,24.68-25.96,35.54-7.57,8.13-14.91,16.47-23.93,24.74,3.9-.54,5.37-2.87,7.06-4.44,15.57-14.5,31.72-28.47,43.65-46.39,1.99-2.99,3.69-6.17,5.55-9.25.66-1.1.79-3.25,2.76-2.33,1.97.92,1.39,2.68.65,4.33-2.89,6.49-6.73,12.38-10.92,18.1-4.55,6.21-9.35,12.19-14.75,17.67-5.07,5.15-10.12,10.33-15.37,15.3-1.25,1.18-3.45,1.29-3.9,3.5-.14.68-1.06,1.35.08,1.87.55.25,1.18.27,1.72-.33,5.29-5.89,11.85-10.36,17.46-15.94,5.71-5.67,11.58-11.18,17.12-17.03,4.07-4.29,7.79-8.86,11.11-13.77.84-1.24,1.51-3.42,3.73-2.32,2.41,1.19,1.21,3.23.46,4.68-3.1,5.95-7.02,11.33-11.72,16.14-2.83,2.9-5.47,5.98-8.37,8.81-3.13,3.05-6.28,6.15-9.8,8.7-1.8,1.3-2.86,3.16-4.76,4.49-5.4,3.77-8.74,9.92-15.23,12.91-2.25,1.04-4.24,4.26-6.71,5.96-9.78,6.74-18.49,15.01-28.98,20.69-6.51,3.52-11.42,9.01-17.9,12.81,1.61,1.07,2.45.14,3.42-.39,9.17-4.96,18.14-10.29,27.16-15.48,3.69-2.12,7-5.5,10.7-8.03,13.02-8.91,25.89-18.04,37.92-28.27,7.2-6.12,14.26-12.42,20.7-19.36,2.25-2.43,5.05-4.39,6.57-7.5.39-.81,1.1-1.53,2.18-1.16,1.22.42,1.84,1.43,1.89,2.66.04,1.2-.55,2.25-1.32,3.14-6.09,7.11-12.07,14.31-19.26,20.4-5.35,4.53-10.39,9.43-15.85,13.8-7.21,5.77-14.58,11.35-22.09,16.72-8.28,5.92-16.83,11.46-25.18,17.27-1.33.93-3.29.82-4.3,2.88,1.97.58,3.26-.73,4.49-1.42,19.71-11.08,38.06-24.24,56.45-37.32,10.58-7.52,21.1-15.1,29.6-25.06.48-.56,1-1.34,1.9-.87.91.48,1.1,1.39.92,2.34-.35,1.84-1.48,3.28-2.62,4.66-6.28,7.57-13.86,13.7-21.74,19.49-5.03,3.7-10.19,7.23-15.22,10.93-12.46,9.17-25.03,18.19-38.27,26.22-.29.18-.49.51-.87.92,1.63.89,2.84,0,3.99-.59,10.6-5.43,21.69-10.12,31.64-16.55,14.52-9.38,29.17-18.65,42.7-29.52,1-.8,2.15-3.19,3.59-1.69,1.39,1.45.58,3.41-.93,5.11-4.5,5.05-10.1,8.7-15.52,12.57-6.54,4.67-12.89,9.67-19.8,13.71-4.95,2.9-9.05,7.36-14.48,9.03-4.35,1.33-6.8,5.01-10.82,6.52,2.97.71,5.49-.55,8.02-1.38,12.91-4.25,24.64-10.78,35.8-18.5,5.17-3.58,10.47-6.95,15.36-10.93,1.12-.91,2.4-2.38,3.89-.45,1.35,1.76.39,3.11-.95,4.33-4.49,4.05-9.26,7.76-14.34,11.02-8.57,5.49-16.76,11.7-26.25,15.59-10.86,4.45-21.76,8.69-33.24,11.58-6.13,1.54-12.2,3.42-18.45,4.59-.27.05-.48.49-1.29,1.36,34.84-4.19,67.23-12.72,94.62-34.99,1.3,3.24,1.11,4.12-1.98,6.86-7.44,6.61-15.77,11.93-24.61,16.44-7.79,3.98-15.98,6.98-24.26,9.75-1.19.4-2.42.69-3.67,2.36,11.49-2.23,22.2-4.85,32.78-8.09,8.21-2.52,15.49-6.75,22.65-11.3,1.04-.66,2.33-2.48,3.56-.83,1.01,1.36.02,2.93-1.2,4.06-7.14,6.58-15.56,10.78-24.74,13.72-9.17,2.94-18.52,5.13-27.85,7.44-.95.23-2.06.2-2.96,1.55,4.25,0,8.24.32,12.16-.07,7.1-.71,14.23-1.3,21.26-2.76,6.88-1.42,13.34-3.62,19.02-7.92.95-.72,2.39-2.82,3.83-.89,1.31,1.75.11,3.39-1.3,4.71-7.27,6.8-16.25,9.56-25.8,11.05-17.41,2.72-34.97,3.42-52.54,4.08-3.4.13-6.75.26-10.83.77,1.77,1.45,3.33,1.16,4.66,1.19,12.83.28,25.66,1.09,38.48.4,12.01-.65,24.22.03,35.74-4.5,2.27-.89,4.47-1.95,6.73-2.88,1.29-.53,2.81-1.38,3.65.49.71,1.59-.37,2.69-1.65,3.47-6.12,3.72-12.72,6.19-19.79,7.17-19.17,2.65-38.44,2.68-57.73,2.01-7.43-.26-14.87-.42-22.26-1.08-11.11-.98-22.15-2.64-33.35-2.67-6.72-.02-13.37.27-19.84,2.26-.98.3-2.07.5-2.86,1.09-2.37,1.78-5.52,2.98-5.57,6.71-.08,5.23,1.96,9.27,6.78,11.57,7.04,3.36,14.5,5.18,22.27,5.67,16.14,1.03,32.09-.99,48.01-3.21,20.9-2.92,41.72-3.44,62.45,1.35,6.58,1.52,13.23,2.71,19.45,5.52,1.02.46,1.86.76,2.07,1.94.3,1.74,1.24,2.74,3.07,2.9.8.07,1.54.43,1.48,1.42-.06.89-.77,1.29-1.52,1.54-1.15.38-2.28.23-3.39-.2-16.27-6.16-33.28-8.29-50.51-9.23-10.53-.57-20.9,1.09-31.33,1.92-1.37.11-2.73.43-4.46.71,1.35,1.38,2.99,1.09,4.23.97,16.13-1.51,31.64,1.6,47.04,5.88,7.42,2.06,14.68,4.58,21.94,7.13,5.41,1.9,10.9,3.55,16.34,5.38,3.27,1.1,4.47,5.75,2.19,8.19-.88.94-1.65.29-2.4-.14-4.89-2.82-10.59-3.57-15.63-6.31-2.88-1.56-6.98-1.61-10.47-2.69-3.31-1.02-6.66-1.89-9.83-3.36-5.09-2.35-10.72-2.55-16.09-3.83-3.47-.83-7.26-.58-10.56-1.77-5.4-1.96-10.83-.4-16.21-1.03-1.81-.21-3.63-.07-4.78-1.85-.49-.75-.95-1.75-2.05-1.32-1.56.61-.42,1.99-.7,2.95-.56,1.97,1.02,1.47,1.72,1.53,9.31.85,18.11,3.77,26.8,6.89,10.1,3.63,20.1,7.52,29.93,11.86,5.26,2.33,10.92,3.79,16.14,6.2,4.38,2.03,8.89,3.69,13.33,5.55,2.03.85,2.43,1.87.38,3.14-1.86,1.15-3.5,3.06-6.1,1.73-8.27-4.2-17.46-5.97-25.86-9.8-4.13-1.88-8.14-4.09-12.2-6.06-2.51-1.22-5.75-1.27-8.6-2.48-5.41-2.3-10.89-4.68-16.58-6.06-7.64-1.85-14.93-5.26-23.01-5.36-2.9-.04-5.8-.82-8.87-.69,7.09,2.16,14.13,4.47,21.27,6.46,12.78,3.55,25.18,8.16,36.77,14.52,8.55,4.69,16.3,10.83,24.79,15.65,4.12,2.34,7.38,5.76,11.57,7.9,2.53,1.29,3.08,4.18,1.42,6.45-1.4,1.92-2.79.52-3.98-.25-7.83-5.09-15.72-10.1-23.38-15.44-11.67-8.15-24.64-13.56-37.81-18.62-1.58-.61-3.07-1.07-3.99-2.71-.42-.75-1.44-1.97-2.47-.89-1.23,1.28.24,1.96,1.05,2.7.09.09.2.18.31.23,8.08,3.68,15.76,8.16,22.8,13.47,4.45,3.36,9.31,6.24,13.93,9.04,6.53,3.96,12.42,8.88,19.2,12.44,4.75,2.5,9.21,5.57,13.7,8.54,1.66,1.1,2.48,2.51-.55,2.98-1.43.22-1.01,2.03-1.9,2.41-27.83-16-53.67-35.09-82.98-48.26,3.66,3.88,8.58,5.85,12.97,8.59,5.56,3.46,10.48,7.9,16.08,11.19,7.17,4.21,13.27,9.79,20.08,14.43,6.13,4.18,12.22,8.6,18.07,13.27,3.98,3.18,8.29,5.96,12.23,9.25,2.57,2.15,2.31,4.23,1.19,6.68-.68,1.5-1.4,2.22-3.1.65-10.82-10.04-23.04-18.22-35.19-26.5-8.98-6.12-17.43-13.03-26.56-18.89-5.89-3.78-11.29-8.4-18.4-11.73,3.42,5.92,8.87,8,13.59,10.87,8.22,5.01,15.03,11.91,23.12,17,5.02,3.16,9.79,6.85,13.75,10.91,8.38,8.59,18.67,14.83,27.03,23.34,1.3,1.32-.07,3.91,2.46,4.34-.78,1.16-1.37,2.54-2.39,3.42-1.27,1.11-1.6-.66-2.26-1.22-6.66-5.61-13.45-11.08-19.88-16.94-10.98-9.99-23.23-18.36-34.77-27.64-4.14-3.33-8.87-5.91-13.34-8.83l-.59.8c2.97,2.21,6,4.35,8.91,6.63,10.68,8.37,21.77,16.25,30.89,26.47,2.62,2.93,5.87,5.15,7.48,9.07.69,1.67,3.08,2.71,4.82,3.86,1.47.97,2.81,2.22,3.08,3.81.45,2.69,3.09,3.43,4.51,4.34,3.42,2.2,4.78,5.87,7.6,8.38.97.87-.03,1.82-1.13,2.26-1.44.57-2.52,1.61-3.34,2.81-7.24-8.71-14.88-16.79-22.73-24.68-2.41-2.42-5.28-4.53-6.49-7.93-.56-1.56-2.37-2.05-3.3-2.66-6.02-3.96-11.56-8.24-15.96-14.04-1.26-1.66-3.77-2.11-6.35-2.58,1.57,3.21,4.65,4.33,6.7,6.5,8.68,9.22,17.28,18.49,25.49,28.15,6.23,7.33,12.71,14.46,18.78,21.94,1.5,1.85,3.76,3.68.4,5.98-1.32.9-1.99,1.19-3.47-.11-2.04-1.78-3.91-3.6-5.58-5.74-11.32-14.53-23.68-28.17-36.33-41.53-4.46-4.71-9.78-8.61-14.74-12.84-.53-.45-1.11-1.08-2.14-.71.85,2.3,2.89,3.48,4.42,5.12,9.96,10.66,20.23,21.06,29.69,32.14,8.62,10.1,16.42,20.91,24.43,31.52.98,1.29,2.78,2.93.96,5.09-2.61,3.09-3.78,3.08-6.07-.32-5.14-7.66-11.12-14.7-16.57-22.13-8.43-11.49-18.58-21.42-28.12-32.21-.94,2.43.66,3.63,1.68,4.98,2.45,3.25,5.35,6.08,7.66,9.5,2.89,4.28,7.15,7.66,9.86,12.03,4.27,6.88,10.18,12.7,12.78,20.77.79,2.44,1.63,5.2,2.94,7.45,1.29,2.21,4.5,2.97,5.33,5.95.48,1.71,1.58,3.23,2.2,4.91.89,2.4-.23,4.12-2.44,4.88-2.1.72-3.22-.53-3.99-2.51-7.46-19.05-19.74-35.02-32.53-50.65-5.92-7.23-11.91-14.38-19.09-20.89.58,2.62,1.93,4.12,5.89,8.12,2.73,2.77,5.65,5.33,7.55,8.98,1.06,2.04,3.91,3.03,5.09,5.47,2.65,5.51,7.75,9.29,10.62,14.68,1.93,3.63,5.98,6.06,6.02,10.78.01,1.58,1.89,2.2,2.29,3.37,2.95,8.56,8.32,15.8,12.65,23.59,1.89,3.41.11,5.73-1.57,7.88-1.34,1.71-2.46.58-3.04-1.39-5.3-17.7-15.54-32.7-26.15-47.48-.11-.16-.46-.15-1.43-.43,1.91,2.97,3.49,5.48,5.13,7.95,1.5,2.25,3.58,4.45,2.95,7.29-.48,2.17,1.53,1.21,2.08,2.32,1.8,3.58,3.21,7.37,5.47,10.75,1.52,2.26-.74,3.35-2.26,4.47,4.45,3.78,7.72,8.1,7.22,14.31-.2,2.59.13,5.16-.65,7.78-.49,1.67-1.35,3.29-2.64,3.2-1.7-.12-3.71.13-4.81-2.63-5.46-13.83-10.1-28.06-17.95-40.81-9.4-15.26-20.65-29.06-34.37-40.66-2.26-1.91-4.09-4.44-7.49-6.21,1.74,4.2,5.15,5.94,7.66,8.38,2.84,2.77,5.23,5.8,7.04,9.27,1.18,2.26,2.5,4.26,4.69,5.66,2.97,1.89,4.22,5.25,5.7,8.07,2.69,5.13,6.75,9.55,8.42,15.17,1.48,5,5.21,8.89,6.38,14.1.53,2.35,2.55,4.42,3.57,6.88,2.92,7,6.22,13.84,9.38,20.74.53,1.16,1.44,2.27,1.21,3.59-.27,1.55-.43,2.52,1.52,3.31,1.13.46.79,2.52.35,4.15-.98-.76-1.43-3.28-3.09-.16-1.41,2.64-3.48-.02-4.07-1.59-4.11-10.8-8.88-21.32-13.63-31.83-5.27-11.69-10.8-23.3-18.23-33.85-.33-.47-.78-.87-1.27-1.4-1.21,1.5-.13,2.66.44,3.19,3.89,3.57,5.05,8.54,7.29,13,2.18,4.34,4.35,8.68,6.25,13.13,2.41,5.67,4.75,11.38,6.67,17.26,1.59,4.86,3.85,9.5,5.63,14.31,1.5,4.06,2.78,8.2,4.04,12.34.48,1.59.65,3.25-.16,4.87-.77,1.54-2.38,1.4-3.61,1.67-1.58.34-2.1-1.21-2.48-2.43-3.8-12.39-8.03-24.64-12.86-36.67-6.58-16.39-13.72-32.52-23.94-47.06-.35-.49-.79-.93-1.75-2.06,1.04,4.97,4.01,8.04,5.97,11.47,3.75,6.58,7.2,13.09,8.15,20.69.04.31.44.84.45.84,2.79-1.44,2.58,1.26,2.95,2.4,5.99,18.7,11.84,37.44,17.86,56.13.59,1.84-1.01,1.38-1.43,2.11-.68,1.19-1.62,2.08-3.13,1.1-1.08-.7-2.22-1.32-2.57-2.72-2.02-8.03-5.48-15.59-7.35-23.7-.96-4.16-3.64-7.8-4.63-12.11-.57,1.69-.65,3.18-.09,4.92,2.51,7.88,5.14,15.76,6.92,23.82.57,2.57,1.09,5.06,2.01,7.55,1.01,2.75-1.65,3.31-3.22,3.82-1.92.62-3.27-.48-3.8-2.7-2-8.37-4.22-16.69-6.26-25.06-5.64-23.17-13.49-45.5-25.32-66.29-.54-.95-.84-2.17-2.8-2.89,2.54,4.3,3.77,8.51,5.27,12.62,2.79,7.64,5.31,15.38,8.15,22.99,2.86,7.67,5.09,15.6,6.32,23.58,1.07,6.97,3.24,13.63,4.32,20.54,1.02,6.46,1.71,12.97,2.56,19.46.15,1.16.23,2.31-.28,3.41-.55,1.18-1.1,2.44-2.68,2.38-1.32-.05-2.07-.96-2.46-2.13-.53-1.58-1.43-3.18-1.42-4.77.02-9.42-2.87-18.4-4.26-27.59-1.59-10.52-4.56-20.92-7.94-31.11-3.99-12.05-7.73-24.18-13.04-35.74-.26-.56-.55-1.11-1.22-1.55,1,4.31,2.31,8.49,2.9,12.89.94,7.02,3.17,13.73,6.36,20.13,2.17,4.35,3.06,9.12,3.91,13.93.32,1.83,1.14,3.94,1.87,5.62,2.1,4.78,1.53,9.8,2.59,14.59,1.75,7.85,1.59,16.01,4,23.7,1.33,4.25,1.26,8.54,1.31,12.87.02,2.12-.12,4.64-2.66,4.86-2.71.23-3.42-2.29-3.73-4.51-1.56-11.33-3.48-22.62-4.46-34-.85-9.84-3.7-19.14-6.36-28.47-5.1-17.87-10.38-35.69-18.48-52.52-4.28-8.9-8.26-17.94-12.37-26.93-.27-.59-.48-1.19-1.46-1.42-.95,1.2-.24,2.2.4,3.3,4.21,7.32,6.62,15.38,9.41,23.27,2.54,7.19,4.89,14.46,7.57,21.6,4.28,11.39,8.83,22.62,11.46,34.63,1.72,7.84,3.61,15.52,3.76,23.59.04,1.92,1.13,3.85,1.52,5.89,2,10.34,3.63,20.7,4.17,31.23.1,1.86-.08,3.18-1.88,4.15-3.84,2.06-4.92,1.56-5.16-2.76-1.04-19.53-3.02-38.95-7.4-58.03-2.24-9.74-4.39-19.55-8.99-28.65.59,2.72,1.08,5.43,1.36,8.19.28,2.75,1.66,5.37,2.25,8.11,1.94,9.04,3.36,18.18,3.8,27.42.11,2.33.92,4.45,1.32,6.63,1.64,8.8,2.53,17.58,1.72,26.51-.06.63-.17,1.35.05,1.9,2.16,5.29-.74,8.1-5.75,10.7-.4-17.49-1.75-34.52-4.13-51.52-2.39-17-6.19-33.5-12.32-49.54,2.1,8.96,1,18.23,3.36,27.24,2.14,8.14,3.02,16.64,4.07,25.03,1.25,10.03,2.11,20.11,3.09,30.18.52,5.35,1.09,10.7,1.38,16.06.36,6.64.25,6.64-6.81,9.27-.86-18.83-1.68-37.56-4.64-56.05-2.96-18.48-4.64-37.19-9.36-56.3-1.21,3.83.24,6.55.48,9.33,1.09,12.63,2.7,25.2,3.22,37.89.37,8.91,2.55,17.77,2.66,26.67.12,10.06,1.05,20.13.46,30.19-.22,3.66-3.37,6.38-4.24,10.12-2.18-44.93-5.62-89.56-14.29-133.65-.91,2.34-.63,4.72-.29,7.02,2.34,15.76,4.7,31.54,5.51,47.45.88,17.33,2.28,34.62,3.21,51.94.44,8.31-.17,16.67-.36,25.01-.05,2.28-4.08,6.35-6.23,6.37-1.77.01-1.08-1.4-1.07-2.23.04-8.49.12-16.97.24-25.46.04-3.1-.42-6.13-.97-9.34-1.59,9.94-1.64,19.78-1.61,29.62.01,3.33-1.2,5.68-4.25,7.01-2.09.91-3.22.34-3.05-2.12,1-14.07,1.75-28.16,1.71-42.28-.04-13.61-.4-27.22-.44-40.82-.05-17.87-2.48-35.55-3.86-53.32-.09-1.13-.09-2.3-1.05-3.52-1.42,6.78-.07,13.3-.31,19.79-.3,8.32-1.2,16.73-.31,24.94,1.07,9.92.7,19.8.88,29.68.13,6.84-.99,13.73-.7,20.63.14,3.33,1.21,6.71.83,9.95-1.32,11.46.1,22.86.15,34.29.01,2.85-1.2,4.03-3.66,4.35-2.05.27-3.03.3-3.02-2.89.11-18.12,1.68-36.22.6-54.37-.64-10.75-.35-21.56-.34-32.35,0-3.48-.4-6.9-.99-10.35-1.19,5.65-1.3,11.45-1.11,17.13.48,14.29-.54,28.52-1.12,42.77-.46,11.45-.35,22.88.51,34.3.11,1.49,1.37,4.19-1.9,3.65-1.97-.33-5.65,2.32-5.5-3.13.19-6.56-.14-13.24.33-19.7.28-3.85-1.78-7.33-.53-11.02.2-.59.1-1.32.4-1.84,1.18-2.01,1.51-3.84.11-6-.8-1.24-1.07-3.13-.32-4.49,3.34-6.06.84-12.39,1.09-18.58.1-2.55.19-5.02.95-7.56.56-1.87,1.15-3.93-.17-6.29-.89-1.58-1.95-4.49.98-6.44.61-.41.26-3.29-.49-4.51-2.59-4.17-.58-7.98.76-11.66.83-2.28,1.5-4.43.8-6.66-1.37-4.41-.71-8.83.1-13.08,1.12-5.93-.13-11.94,1.18-17.8.49-2.19.22-4.63,2.24-6.26,1.15-.93.3-1.03-.48-1.35-1.82-.76-2.15-1.44.22-1.73.52-.06,1.11.02.41-.78-2.91-3.3-1.97-7.35-2.24-11.33-1.76,2.72-1.95,5.89-2.04,8.79-.33,9.76-2.09,19.37-2.43,29.13-.54,15.78-2.54,31.48-3.19,47.28-.93,22.33-2.43,44.64-3.56,66.96-.13,2.49-1.71,4.36-1.99,6.85-.24,2.07-3.04,1.05-4.74,1.03-1.84-.02-1.45-1.44-1.27-2.55,2.83-17.78,2.41-35.81,4.24-53.68.97-9.42.94-18.93,1.46-28.4.24-4.44.71-8.87.86-13.36-1.15,1.86-1.26,3.99-1.59,6.06-3.32,20.92-6.84,41.81-7.93,63.02-.42,8.19-1.68,16.34-2.33,24.53-.26,3.25-2.02,3.19-4.47,3.02-2.79-.19-3.47-1.39-2.99-3.99,2.99-16.3,4.43-32.8,5.58-49.28.5-7.25,2.77-14.05,3.49-21.13,1.31-12.89,4.62-25.49,5.14-38.5.14-3.57.39-7.36,2.02-10.85,1.84-3.93.44-8.1.38-12.18-2.78,6.65-3,13.78-4.3,20.68-1.56,8.32-3.01,16.66-4.34,25.02-2,12.55-3.88,25.13-5.77,37.7-1.49,9.89-3.05,19.78-4.32,29.71-.65,5.09-.84,10.24-1,15.37-.08,2.78-.85,5.04-3.86,4.88-2.85-.16-2.99-2.55-2.77-4.95,1.99-21.77,4.6-43.45,8.22-65.03,1.55-9.23,2.85-18.51,4.57-27.72,2.97-15.88,5.93-31.75,8.81-47.65.96-5.3,1.53-10.66,3.31-15.81.4-1.14.82-2.68-.4-4.25-2.07,7.66-4.32,14.98-5.63,22.55-2,11.63-6.09,22.77-7.95,34.44-.75,4.71-2.61,9.22-3.39,13.84-.78,4.59-1.15,9.36-1.9,13.98-.59,3.66-.23,7.81-3.26,10.84-.22.22-.02.95.09,1.43.73,3.18,2.07,6.45-1.48,8.94-.15.1-.11.85.05.95,2.4,1.46.14,3.38.35,5.09-.15-.43-.3-.86-.45-1.29,1.95,4.77-1.4,8.96-2.48,12.98-2.13,7.94-1.3,16.23-4.01,23.91-1.35,3.83-.82,7.82-1.35,11.71-.44,3.18-2.53,2.27-3.77,2.46-2.4.38-1.17-1.68-1.09-2.66,1.16-13.85,3.92-27.47,5.98-41.2,1.49-9.96,2.67-19.98,4.19-29.94,1.98-12.94,4.31-25.82,7.39-38.56,1.53-6.34,3.5-12.59,4.15-19.45-1.66.45-1.57,1.73-1.82,2.69-7.07,27.87-13.38,55.88-17.86,84.32-2.11,13.43-4.95,26.79-7.37,40.19-.46,2.54-1.12,3.74-3.87,2.18-2.15-1.23-5.05.74-7.19-1.95-1.36-1.71-2.17-2.97-1.4-5.06,2.51-6.76,3.09-13.98,4.91-20.89,1.85-7.03,2.61-14.24,4.14-21.25,2.03-9.32,3.02-18.86,5.62-28.07.49-1.72,2.56-3.09,1.28-5.56-2.73,2.15-2.91,5.43-3.85,8.13-6.13,17.46-12.02,34.98-14.95,53.37-1.04,6.56-3.18,12.96-5.04,19.36-.3,1.02-.19,3.91-2.63,2.44-1.83-1.11-4.52-1.97-3.19-5.54,2.31-6.18,5.04-12.29,4.83-19.18-.05-1.72.68-3.53,1.34-5.18,2.01-4.95,2.47-10.13,2.05-15.62-2.02,4.43-4.32,8.76-5.99,13.32-2.43,6.61-5.68,12.89-7.63,19.69-.3,1.06-1.02,3.01-2.56,1.98-1.91-1.28-5.3-2.08-4.1-5.53,1.21-3.49,2.66-6.94,4.44-10.18,4.18-7.63,6.62-15.96,10.03-23.88,4.29-9.94,6.88-20.61,11.94-30.09,1.91-3.57,2.42-7.42,4.32-10.92,2.08-3.82,3.68-8.06,5.27-12.23,1.02-3.97,3.93-7.25,4.04-11.54-.42,4.19-4.91,6.94-4,11.61m190.75-31.46c.19-.17.38-.33.57-.5-.39-.48-.75-.98-1.17-1.43-13.77-14.74-29.33-27.43-45.16-39.88-8.75-6.88-17.82-13.42-25.71-21.37-3.18-3.2-6.69-6.06-10.05-9.08-.23.23-.45.45-.68.68,3.74,4.59,7.77,8.9,12.1,12.99,11.16,10.56,22.81,20.5,35.43,29.32,6.16,4.31,12.03,9.08,17.78,13.94,5.79,4.91,11.27,10.2,16.88,15.32m-235.03,62c18.97-30.49,35.58-62.28,52.61-93.85-20.33,29.74-36.84,61.58-52.61,93.85m-4.92-70.82c13.44-13.15,26.7-26.47,38.9-40.8-14.19,12.44-26.8,26.38-38.9,40.8m212.2,74.44c.05,4.06-.01,7.11,1.6,9.9.52.9,1.14,1.48,2.12,1.1.79-.31,1.21-1.58.76-1.9-2.86-2.07-2.1-5.82-4.47-9.1m-7.96-19.08c.91,2.78,1.73,5.66,2.1,8.65.15,1.16.79,1.57,1.85,1.35,1.12-.23.68-1.1.71-1.84.15-3.62-3.78-4.95-4.66-8.16M170.74,158.01c-.82-3.65.02-7.84-3.83-11.18.8,4.34,1.92,7.89,3.83,11.18m113.83,34.33c1.65-.64,2.9-1.62,2.84-3.58-.02-.68.23-1.95-.8-1.74-2.02.42-2.32,2.46-2.95,4.07-.25.65.04,1.23.9,1.24m14.27,1.98c.74-1.71-.4-3.63,1.16-5.08.82-.76-.26-1.28-1.06-1.28-.78,0-2.18-.45-2.03.88.21,1.82-.4,4.07,1.93,5.48"/></g><g class="cls-7"><path class="cls-5" d="m153.11,395.13c-1.49.38-1.74,1.75-2.32,2.87-8.46,16.45-14.76,33.83-22.09,50.77-3.97,9.19-7.96,18.38-12.96,27.08-1.16,2.02-5.22,2.72-7.11,1.36-1.19-.86-1.06-1.79-.35-2.6,4.14-4.76,6.31-10.7,9.21-16.12,2.53-4.72,5.22-9.49,6.84-14.81,1.94-6.37,3.17-13.23,7.94-18.44,1.07-1.17.87-2.64,1.26-3.96,1.57-5.45,4.64-10.22,6.85-15.37,4.34-10.14,8.71-20.27,12.4-30.78-3.24,5.33-7,10.43-9.56,16.07-2.34,5.17-5.43,9.83-8.17,14.72-3.37,6.04-6.79,12.06-10.5,17.89-6.93,10.91-11.38,22.9-15.75,34.94-1.49,4.09-2.57,8.31-4.6,12.23-1.26,2.43-2.03,2.08-3.35.17-1.29-1.87-3.3-3.43-1.63-6.21-1.68-.25-3.32,1.13-4.28-1.01-.5-1.12-1.77-.92-3.06-.58-4.5,1.2-6.26-.6-4.61-4.97,1.76-4.66,4.01-9.13,6.06-13.67,2.05-4.55,4.28-9.02,6.16-13.63,3.72-9.14,7.63-18.17,12.4-26.82,6.7-12.14,12.83-24.59,20.19-36.37.52-.84.71-1.88,1.41-3.79-3.02,2.54-3.95,5.33-5.32,7.73-7.38,12.93-16.33,24.88-23.74,37.79-7.65,13.33-15.35,26.62-23.91,39.4-.35.53-.58,1.14-.88,1.71-.84,1.59-1.27,4.46-3.72,3.1-1.8-1-3.83-2.78-2.4-5.98,3.77-8.45,9.51-15.68,14.05-23.64,3.01-5.27,5.88-10.67,9.4-15.59,2.52-3.54,3.56-7.97,7.62-10.79,1.5-1.04,2.64-4.61,3.89-7.05,2.53-4.94,6.04-9.11,9.34-13.5,3.72-4.96,6.42-10.67,8.68-16.49.9-2.32,2.25-4.26,3.73-6.18.88-1.14,2.3-2.02,2.19-3.79-1.44-.21-2.03.76-2.57,1.54-4.63,6.61-11.18,11.59-15.58,18.42-4.91,7.62-11.3,14.14-16.06,21.94-4.66,7.64-9.18,15.41-14.33,22.71-1.38,1.95-2.63,3.98-3.99,5.93-1.14,1.64-2.07,3.14-2.08,5.15,0,1.09-.57,1.94-1.2,2.78-2.85,3.8-4.89,8.06-6.91,12.32-1.09,2.29-3.3,2.75-5.23,1.99-2.23-.88-2.09-3.07-1.06-4.93,4.22-7.63,8.46-15.24,12.81-22.8,4.91-8.53,9.57-17.24,15-25.43,6.22-9.39,12.92-18.47,20.16-27.13,8.53-10.21,17.03-20.44,25.53-30.66.38-.46,1.01-.85.48-1.85-1.97.08-2.23,2.13-3.29,3.16-8.92,8.67-17.59,17.6-25.99,26.77-2.48,2.7-3.88,6.45-7.67,7.88.92,4.68-4.2,5.48-5.67,8.76-1.12,2.52-2.41,5.4-5.76,6.29-1.86.49-1.19,2.81-2.31,4.17-5.67,6.93-10.52,14.48-16.17,21.47-5.11,6.32-8.95,13.7-13.1,20.76-1.55,2.64-3,3.62-5.65,1.65-2.48-1.85-.86-3.57.18-5.23,8.77-13.9,18.15-27.38,28.16-40.41,5.07-6.6,10.24-13.12,15.41-19.65.7-.88,1.73-1.52,1.37-3.35-5.81,6.63-11.55,12.9-16.98,19.42-8.29,9.95-16.38,20.06-24.53,30.12-1.29,1.59-2.24,3.53-3.74,4.85-1.18,1.04-2.22,4.21-4.45,1.87-1.58-1.67-3.6-3.81-1.15-6.67,4.58-5.36,8.9-10.94,13.43-16.35,10.19-12.18,20.07-24.62,30.68-36.45.85-.95,3.33-1.97,2.41-2.81-1.79-1.65-2.64,1.16-3.67,2.04-15.94,13.54-29.74,29.23-44.22,44.24-1.41,1.46-2.87,3.17-4.93,1.58-2.28-1.76-1.76-3.41.17-5.72,9.21-11.05,19.66-20.93,29.36-31.51,8.33-9.09,18.19-16.6,27.5-24.67,11.97-10.38,24.08-20.63,35.6-31.5,4.29-4.04,8.64-7.94,13.12-11.8-7.27,3.75-14.34,7.8-21.09,12.42-15.37,10.52-30.19,21.77-44.34,33.86-9.05,7.74-17.61,16.05-26.66,23.8-5.84,5-11.83,9.79-17.21,15.3-.71.73-1.5,1.55-2.41,1.89-1.46.54-3.03,3.27-4.4,1.07-1.3-2.08-2.32-4.91.55-7.25,8.3-6.77,16.81-13.32,24.65-20.6,7.44-6.92,14.67-14.09,22.34-20.75,2.19-1.9,4.91-3.08,6.11-6.92-6.94,5.11-13.12,10.04-19.71,14.35-2.96,1.93-4.43,5.35-7.5,6.79-4.87,2.28-8.06,6.48-12.11,9.66-2.72,2.13-6.12,3.38-8.84,5.68-.94.79-2,1.29-2.86,2.35-2.36,2.93-6.28,2.63-8.34-.4-1-1.47.27-2.02,1.19-2.69,6.88-4.93,13.97-9.61,20.61-14.85,14.11-11.15,28.68-21.64,43.4-31.96.66-.46,1.56-.86,1.25-2.34-2.58,3.35-7.65,2.08-9.95,5.94-.23.38-.83.6-1.3.77-7.75,2.79-14.23,7.83-21.2,12-2.88,1.73-6.37,2.69-8.95,4.35-4.59,2.95-9.76,4.91-14.04,8.41-3.32,2.71-7.02,5.01-10.72,7.21-1.44.86-3.15,2.98-5.11.2-1.86-2.63-1.28-4.37,1.25-5.98,10.83-6.88,21.85-13.4,33.23-19.39,8.81-4.64,17.03-10.42,25.81-15.21,4.59-2.5,8.98-5.36,13.16-8.76-3.08,1.19-6.54,1.83-9.14,3.69-4.55,3.25-9.74,5.12-14.58,7.72-13.54,7.29-27.57,13.67-40.58,21.97-3,1.91-6.69,2.57-9.55,4.85-1.93,1.54-2.42-.88-3.12-1.62-.99-1.02-.22-2.31.97-3.12,5.09-3.49,10.59-6.27,15.98-9.25,11.07-6.13,22.21-12.14,33.16-18.49,4.04-2.35,8.54-4,12.96-7.74-5.08.71-8.68,2.76-12.55,3.93-14.16,4.27-27.33,10.96-40.85,16.8-3.29,1.42-6.39,3.14-9.42,5-1.92,1.18-3.52.26-5.05-.52-.9-.46-1.27-2.41-.66-2.69,1.88-.85,2.26-3.03,4.06-3.87,8.36-3.92,16.59-8.13,25.06-11.81,4.24-1.84,8.39-4.39,13.35-4.04.25.02.61.05.74-.09,4.6-4.87,11.43-4.53,16.84-7.22,8.12-4.05,16.9-5.7,25.29-8.67,12.01-4.26,24.3-7.72,36.65-11.05-5.78-.49-11.4.64-16.98,1.84-21.85,4.71-43.06,11.67-64.36,18.34-5.52,1.73-11.41,2.88-16.73,4.68-7.66,2.6-15.98,4.57-22.57,9.88-1.84,1.48-3.69,1.82-4.91-.06-1.29-1.99-.82-4.1,1.47-5.6,6.39-4.18,13.29-7.32,20.58-9.36,14.77-4.14,29.19-9.32,43.82-13.88,5.72-1.78,11.55-3.22,17.27-5.09-5.89-.14-11.72,1.03-17.1,2.9-7.68,2.66-15.8,3.19-23.43,5.83-12.71,4.41-25.97,7.2-38.26,12.87-.7.32-1.43.67-2.17.76-1.56.2-3.19.31-3.82-1.65-.6-1.85.39-2.92,1.98-3.61,3.17-1.38,6.34-2.9,9.77-3.34,3.51-.44,6.04-3.22,9.32-3.72,6.94-1.08,13.44-3.72,20.16-5.51,6.57-1.75,13.23-3.36,19.7-5.55,9.63-3.27,19.73-4.15,29.7-5.75.34-.05.67-.21,1.32-.42-2.25-2.36-5.43-1.64-7.46-1.68-7.42-.17-14.88.61-22.31,1.34-8.1.79-15.63,3.8-23.62,4.83-2.71.35-5.59,1.31-7.82,2.83-1.61,1.1-3.7-1.86-4.53,1-5.05-.93-7.73,4.18-12.4,4.78-3.22.41-6.76.61-9.74,2.68-1.34.93-3.81.12-4.27-.79-.87-1.68,1.29-2.51,2.49-3.21,7.15-4.2,15.14-6.36,22.93-8.86,12.97-4.17,26.28-7.09,39.67-9.59.46-.09.88-.39,1.89-.85-4.89-1.93-9.53-1.39-13.97-1.65-9.6-.56-19.24-.35-28.83.47-3.71.32-7.25,1.58-10.84,2.58-1.31.37-3.01,2.17-4.36-.16-.11-.19-.44-.44-.59-.39-.77.22-.21.82-.29,1.25-.32,1.6-1.77,2.03-2.93,2-2-.05-2.71-2-3.81-3.35-1.06-1.29-.29-2.14.49-3,1.64-1.8,3.97-2.21,6.12-3.03,12.67-4.86,25.88-4.58,39.13-4.55,15.6.03,30.98,2.03,46.31,4.48,11.27,1.8,22.39,4.62,33.69,6.05,7.45.94,15.14,1.1,22.66-.25,4.59-.82,8.24-3.64,11.61-6.59,3.51-3.07,3.26-8.18-.64-11.05-6.59-4.85-13.87-8.44-22.25-8.77-16.05-.63-32.12-.86-48.17-1.63-22.95-1.1-45.94-1.42-68.84-3.68-5.49-.54-10.7-2.62-16.32-2.38-1.97.09-2.02-2.03-2.04-3.52-.03-1.42,1.08-1.61,2.2-1.34,11.48,2.78,23.13.75,34.68,1.32,5.46.27,10.94.76,16.4,1.24,5.36.47,10.83-.36,16.3-.88-6.53-2.24-13.34-2.98-20.12-3.84-15.55-1.97-31.11-3.88-46.66-5.83-1.65-.21-3.77-.32-3.28-2.73.46-2.24,2.26-1.68,4.01-1.32,9.2,1.9,18.6,2.32,27.91,3.31,8.4.9,16.7,2.72,25.18,2.87.73.01,1.48.43,2.48-.49-3.13-2.08-6.57-2.6-9.91-3.5-13.44-3.61-27.4-5.12-40.47-10.21-1.51-.59-3.28-.51-4.94-.73-1.33-.18-3.03.21-2.93-2.05.09-1.94,1.47-2.8,3.01-2.94,1.34-.12,2.8.31,4.1.79,9.06,3.37,18.52,5.07,27.93,7.08,19.5,4.16,38.95,8.58,58.43,12.87,1.37.3,2.76.47,4.19.54-8.13-3.25-16.66-5.16-25.08-7.4-17.11-4.54-34.07-9.56-50.81-15.3-5.83-2-11.71-3.85-17.59-5.7-2.29-.72-3.73-2.02-2.91-4.5.86-2.6,2.95-1.39,4.57-1,13.37,3.24,26.38,7.7,39.58,11.54,9.45,2.75,18.95,5.36,28.7,7.32-4.6-1.75-9.2-3.49-13.8-5.25-10.82-4.14-21.71-8.12-32.45-12.47-8.29-3.35-16.34-7.23-23.61-12.59-1.63-1.2-2.1-2.48-1.84-4.24.47-3.12,1.4-3.35,4.04-1.49,4.95,3.48,10.32,6.22,15.92,8.55,18.7,7.79,37.67,14.88,56.78,21.56,9.72,3.4,19.69,6.12,29.58,9.02,3.09.91,5.81,3.13,9.73,2.92-1.63-3.02-4.59-3.45-6.81-4.19-19.01-6.38-37.9-12.95-56.16-21.38-12.46-5.75-24.6-12.06-36.66-18.56-3.76-2.03-7.04-4.7-10.35-7.36-1.41-1.13-1.74-2.29-.8-3.97.87-1.55,1.46-2.06,3.14-.77,12.45,9.55,26.91,15.47,40.81,22.42.31.16.74.1,1.15.15-.92-1.56-3.43-3.71-5.63-4.92-11.06-6.06-21.26-13.34-30.64-21.74-1.8-1.61-3.32-3.58-4.73-5.56-.71-1-1.23-2.57-.19-3.6,1.28-1.27,2.31.13,3.24.89,17.26,13.91,35.7,26.03,55.23,36.51,4.09,2.19,8.04,4.73,12.87,6.4-.69-2.81-3.07-3.29-4.58-4.26-14.48-9.26-28.63-18.99-42.51-29.11-7.33-5.34-14.79-10.59-20.06-18.24-.65-.95-1.5-1.78-1.56-3.03-.07-1.45-.05-3.14,1.21-3.88,1.63-.96,1.99,1.09,2.74,1.88,7.85,8.26,17.02,14.86,26.41,21.18,8.95,6.03,17.98,11.95,26.99,17.9.51.33,1.14.48,1.86.76-.36-5.61-5.68-6.06-8.64-8.75-5.32-4.84-12.76-7.17-16.53-13.91-.75-1.35-2.52-1.24-3.56-2.15-7.6-6.71-16.29-12.28-22.14-20.85-.5-.74-1.07-1.48-1.37-2.3-.39-1.06,0-2.09.9-2.73.91-.66,1.69-.03,2.38.59,5.15,4.65,10.4,9.2,15.42,13.99,4.42,4.22,9.13,8.07,14.33,11.37-4.33-4.09-8.72-8.11-12.96-12.29-4.75-4.69-9.4-9.48-13.98-14.33-.87-.93-2.88-1.98-.96-3.75,1.64-1.51,3.25-1.19,4.79.23,5.07,4.73,10.08,9.51,15.22,14.16,7.73,6.98,15.55,13.86,23.34,20.79.38.34.77.68,1.74.05-3.99-3.98-7.2-8.49-11.11-12.52-8.28-8.51-17.05-16.61-23.88-26.44-1-1.43-1.88-2.83-3.68-3.73-2.91-1.47-1.91-4.59-1.21-6.69.62-1.85,2.27-.6,3.25.57,4.29,5.11,8.45,10.34,12.93,15.27,4.88,5.37,10.18,10.35,15.09,15.7,5.28,5.76,11.2,10.86,16.31,16.89,3.49,4.12,7.45,8.29,11.62,12.06,4.78,4.33,10.69,7.5,14.19,13.2,5.21.47,7.61,5.68,12.79,6.67-2.45-2.36-4.94-4.68-7.34-7.09-8.18-8.26-17.19-15.62-25.29-24-11.8-12.2-21.78-26.02-34.29-37.58-4.57-4.22-8.47-9.21-12.43-14.04-1.1-1.34-1.21-3.52-.17-5.13.96-1.49,1.77-3.27,4-.4,6.38,8.22,13.8,15.56,20.91,23.16,4.73,5.06,9.26,10.3,13.86,15.47.75.84,1.4,1.77,2.09,2.67l.91-.84c-3.95-4.85-7.95-9.65-11.84-14.54-7.64-9.6-15.25-19.22-22.81-28.88-1.01-1.29-1.91-2.77-2.07-4.5-.11-1.19.04-2.5,1.23-3.01,1.22-.53,1.73.72,2.37,1.49,10.79,12.73,21.73,25.34,32.08,38.44.36.46.67,1.11,1.99.82-3.49-4.93-6.79-9.74-10.23-14.44-6.89-9.4-13.96-18.68-20.69-28.2-.84-1.19-4.65-1.45-2.07-4.44,1.79-2.07,4.72-2.25,5.99.24,3.91,7.65,10.42,13.28,15.19,20.28,6.64,9.74,13.95,19.01,20.96,28.5.3.4.42.94.62,1.42.35-.29.7-.58,1.06-.87-2.92-4.39-5.94-8.71-8.74-13.17-7.09-11.29-14.04-22.67-21.12-33.96-1.56-2.5-3.48-4.77-5.09-7.25-1.12-1.72-2.51-3.8-.1-5.39,2.38-1.57,3.57.3,4.75,2.21,4.05,6.55,8.85,12.6,12.8,19.23,8.65,14.51,18.24,28.43,28.03,42.17,6.97,9.79,15.09,18.74,22.28,28.38,7.64,10.24,15.91,19.94,24.17,29.67.75.89,1.58,1.66,3.8,1.88-4.21-4.56-6.76-9.39-10.42-13.63-3.25-3.78-7.11-7.52-8.32-12.93-.43-1.91-2.36-3.55-3.79-5.15-5.71-6.4-9.93-13.9-15.25-20.55-3.28-4.1-6.18-8.43-9.14-12.72-4.46-6.46-8.55-13.23-13.12-19.55-3.76-5.19-6.77-10.78-10.38-16.01-5.74-8.31-11.16-16.84-15.73-25.88-.7-1.39-1.11-2.65-.32-3.97.5-.85,1.23-1.85,2.08-2.14,1.29-.44,1.57,1.07,2.05,1.85,10.31,16.87,20.97,33.52,31.92,49.98,3.04,4.57,6.33,8.97,10,13.18-2.29-4.57-4.25-9.35-6.95-13.67-3.33-5.32-6.2-10.88-9.06-16.43-6.64-12.86-13.01-25.85-19.49-38.79-.34-.69-.61-1.41-.88-2.13-.77-2.07.33-3.05,2.08-3.82,1.92-.84,2.6.05,3.49,1.66,10.1,18.48,19.17,37.51,29.65,55.79.24.42.52.81,1.21,1.89.42-4.69-2.41-7.47-3.71-10.66-4.22-10.42-8.45-20.84-12.85-31.18-3.19-7.49-5.61-15.12-7.86-22.87-.25-.86-.53-1.76-.51-2.63.03-1.51,1.18-2.25,2.47-2.59,1.55-.42,1.9.72,2.26,1.93,4.25,14.33,10.48,27.86,16.36,41.56,8.62,20.07,18.35,39.62,27.81,59.29,1.82,3.78,4.36,7.21,6.94,11.41-.01-2.95-1.65-4.36-2.58-6.07-4.21-7.78-7.58-15.93-11.16-24.01-3.88-8.76-7.89-17.5-11.54-26.36-5.81-14.1-11.28-28.33-14.89-43.22-1.08-4.47-2.91-8.75-4.02-13.21-.66-2.66-2.48-6.48,1.57-7.6,3.93-1.09,3.72,3.19,4.36,5.44,9.67,34.11,23.63,66.55,38.53,98.59,3.77,8.1,8.92,15.56,13.69,23.21-.16-4.13-2.29-7.65-3.54-11.4-5.95-17.86-12.56-35.48-19.16-53.11-4.93-13.15-12.06-25.28-16.6-38.57-2.82-8.25-6.01-16.37-8.25-24.82-.63-2.39.09-3.61,2.26-4.47,2.64-1.04,2.79,1.17,3.28,2.56,3.12,8.7,6,17.5,9.69,25.99,5.53,12.72,11.06,25.44,16.67,38.12,5.83,13.16,9.64,27.1,15.64,41.07.32-3.41-1.07-5.71-1.61-8.12-1.72-7.7-3.85-15.3-6.43-22.78-8.11-23.55-18.93-46.09-25.91-70.05-.9-3.08-1.77-6.18-2.46-9.31-.28-1.29-.66-3.02,1.25-3.55,1.71-.48,3.41-.35,4.19,1.65.75,1.91,1.47,3.84,2.08,5.8,4.23,13.49,9.15,26.72,14.64,39.75.15.35.31.69,1.19.63-.79-3.95-1.65-7.9-2.37-11.87-2.29-12.77-5.06-25.47-5.91-38.46-.13-2.05-.4-4.15,2.28-4.43,2.52-.27,2.77,1.95,2.99,3.7,3.28,26.07,10.96,51.26,15.49,77.07,1.94,11.03,4.79,21.82,7.44,32.67.14.57.5,1.08,1.43,1.43-.99-5.12-2.08-10.22-2.96-15.35-2.67-15.56-5.18-31.17-9.51-46.37-4.34-15.24-5.21-30.86-6.26-46.49-.17-2.56-.31-5.15.62-7.64.6-1.6,1.63-2.68,3.45-2.47,1.95.23,1.36,1.92,1.48,3.05,1.82,17.26,3.55,34.57,7.96,51.37,3.63,13.81,5.91,27.84,8.38,41.85.15.88.49,1.72.93,2.55-.25-8.37-1.86-16.57-3.06-24.82-3.37-23.25-6.8-46.48-7.88-69.99-.02-.51-.04-1.03-.05-1.54-.05-1.44-.2-3.04,1.73-3.32,1.92-.28,2.92,1.14,3.21,2.69.7,3.79,1.33,7.61,1.63,11.44.99,12.67,2.66,25.24,4.53,37.81,2.12,14.28,4.75,28.47,6.47,42.82,1.08-3.94.45-7.88.16-11.79-1.5-19.86-3.21-39.71-4.57-59.59-.54-7.94-.55-15.91-1.35-23.84-.15-1.5.01-2.92,1.94-3.16,1.78-.22,2.5.89,2.96,2.39,1.48,4.85,1.88,9.85,2.12,14.86.75,15.67,2.75,31.22,4.18,46.82.83,9.08,1.42,18.19,1.91,27.3.39,7.07,1.22,14.05,3.47,20.89-.35-9.16-.75-18.32-1.03-27.48-.32-10.64-.49-21.29-.79-31.94-.31-11.16-.71-22.33-1.02-33.49-.15-5.53-.24-11.06-.26-16.58,0-1.83-.52-4.24,2.46-4.29,3.12-.05,2.84,2.48,2.86,4.46.08,6.81.24,13.62.55,20.43,1.31,28.89,2.33,57.78,3.5,86.68.94,23.31,4.05,46.43,6.46,69.61.89,8.56,3,16.99,4.96,25.43-1.42-9.35-.91-18.78-1.54-28.15-.77-11.4-.96-22.85-1.5-34.27-.76-15.91-1.61-31.83-2.42-47.74-1.22-23.74-1.85-47.51-2.46-71.27-.2-7.7-.79-15.4-.47-23.11.06-1.32-.52-3.24,1.63-3.23,1.95.01,1.78,1.87,1.87,3.24,1.34,19.23,2.96,38.44,3.41,57.73.12,5.45.62,10.9,1.17,16.33.77-11.68.3-23.35.32-35.02.01-11.95,0-23.9.08-35.85.01-1.92.27-3.85.61-5.74.25-1.4.78-2.92,2.63-2.75,2.13.19,2.17,1.87,2.04,3.48-.67,8.22-.22,16.44-.02,24.65.89,37.41,1.84,74.83,2.8,112.24.08,3.1-.7,6.33,1.15,9.81,2.18-14.07,2.34-27.58,2.05-41.19-.27-12.44.67-24.9,1.01-37.36.4-14.66-.43-29.29-.82-43.94-.21-7.84-.03-15.68-.11-23.53-.02-1.84-.03-3.37,2.41-3.46,2.76-.1,2.27,1.95,2.29,3.49.51,28.66,1.5,57.31.85,85.99-.54,23.92-1.54,47.81-2.41,71.71-.58,15.81-2.46,31.52-3.34,47.31-.07,1.27-.12,2.53-.21,4.4,1.48-1.58,1.85-3.03,1.95-4.49.43-6.27.33-12.62,1.29-18.81,1.01-6.52,2.13-13.08,3.03-19.59.71-5.14.1-10.65.5-15.98.67-8.91,2.13-17.81,2.12-26.72,0-13.6,1.38-27.12,1.52-40.7.12-11.64,1.18-23.26,1.47-34.9.22-8.71-.11-17.44-.22-26.16-.09-6.93,1.19-13.84.05-20.78-.31-1.89.98-3.46,2.81-3.46,2,0,3.08,1.45,3.06,3.65-.06,6.94.05,13.89-.05,20.84-.2,14.02.49,28.03.03,42.05-.27,8.32-.05,16.67-.05,25.07.94-1.53,1.2-3.47,1.14-5.2-.44-12.03,2.78-23.7,3.36-35.61.74-15.38,1.46-30.76,2.09-46.14.06-1.56-.09-2.94,1.83-3.14,1.75-.18,2.29.85,2.64,2.53,1.35,6.52,1.04,13.06.52,19.59-.97,12.32.03,24.7-1.43,37-2.46,20.68-3.5,41.49-5.45,62.21-1.53,16.21-3.74,32.35-5.03,48.67.95-4.57,2.54-9.11,2.7-13.71.3-8.47,2.44-16.63,3.56-24.95.92-6.82,2.37-13.56,2.55-20.48.01-.38-.01-.79.1-1.15,2.78-9.25,3.44-18.9,4.36-28.39,1.23-12.61,3.23-25.16,3.8-37.81.57-12.7,2.57-25.31,2.01-38.07-.09-2.04.92-3.18,2.91-3.32,2.23-.15,2.85,1.51,3.07,3.23.65,5.13.2,10.28,0,15.42-.68,17.35-1.96,34.66-4.35,51.87-2.07,14.9-4.05,29.8-6.03,44.71-.31,2.34-.81,4.72.03,7.92,2.2-3.84,2.01-7.48,2.6-10.74,1.08-5.95,1.6-11.92,3.46-17.82,1.53-4.83,1.14-10.26,1.62-15.43,1.02-10.98,4.89-21.47,5.57-32.53.85-13.85,2.97-27.57,4.68-41.33.27-2.19,1.3-2.42,2.98-2.54,2.09-.15,2.57.83,2.61,2.76.26,11.99-2.16,23.8-2.41,35.75-.28,13.74-4.61,26.83-6.55,40.3-.42,2.89-1.17,5.76-.94,8.87,1.21-.71,1.34-1.78,1.51-2.76,2.24-12.92,6.53-25.37,8.93-38.26,2.3-12.37,4.67-24.74,6.96-37.11.37-2,.5-3.96,3.4-3.38,2.49.5,2.82,1.95,2.52,4.26-3.75,28.85-10.42,57.1-17.43,85.28-3.29,13.21-6.15,26.53-9.26,39.78-1.23,5.22-2.59,10.41-4.06,16.26,1.97-1.91,2.17-4.05,2.74-5.89,4.32-13.81,8.8-27.58,13.34-41.32,4.22-12.77,6.73-26.04,10.44-38.95,3.56-12.38,5.9-24.97,8.62-37.51,1.11-5.11,2.09-10.25,3.2-15.37.34-1.59.52-3.46,3.07-2.89,2.27.51,2.36,2.06,2.04,3.84-1.66,9.23-3.23,18.48-5.04,27.69-4.07,20.7-10.07,40.92-15.6,61.25-.3,1.1-.51,2.23-.91,3.97,2.24-1.93,2.8-4.04,3.47-6.1,2.45-7.52,4.83-15.07,7.42-22.55,3.36-9.7,7.41-19.19,10.19-29.05,2.59-9.19,5.37-18.41,6.31-28.05.24-2.5.4-5.96,4.4-6.18,2.43-.14,3.7.81,3.15,3.43-1.5,7.17-2.75,14.41-4.53,21.51-3.35,13.35-8.73,26.03-13.27,38.98-3.39,9.64-5.86,19.61-9.62,29.15-2.44,6.18-4.88,12.37-7.22,18.59-.46,1.21-1.52,2.43-.52,4.27,5.45-9.41,9.67-19.14,13.72-28.93,6.03-14.6,12.02-29.22,17.78-43.93,4.03-10.3,6.88-20.99,9.43-31.76.26-1.09-.28-4.01,2.26-2.77,1.99.97,6.22.32,5.07,4.72-3.14,12.01-6.24,24.01-11.22,35.47-4.86,11.17-8.79,22.75-13.92,33.78-3.52,7.57-5.8,15.59-9.42,23.08-1.04,2.15-2.09,4.19-5.52,3.83,2.74,1.2,2.22,2.68,1.35,4.24-.5.89-1.04,1.78-1.44,2.71-.31.73-1.38,1.74-.14,2.29,1.72.77.92-1.03,1.22-1.61,4.08-7.74,7.87-15.64,12.19-23.24,7-12.31,12.21-25.44,17.78-38.38,4.91-11.4,9.68-22.87,13.52-34.69.4-1.22.88-2.49.89-3.74.03-3.86,1.82-4.08,4.95-3,2.24.77,2.63,1.82,2.12,3.97-1.56,6.64-3.59,13.08-6.39,19.34-4.5,10.07-8.51,20.35-12.96,30.44-5.21,11.84-10.72,23.52-16.92,34.9-5.45,10-10.76,20.07-16.44,30.03,1.53-2.02,3.17-3.97,4.58-6.08,8.79-13.14,16.65-26.81,23.55-41.04,8-16.49,16.08-32.94,24.04-49.45,2.06-4.28,3.83-8.7,5.6-13.11.77-1.91,1.42-2.16,3.31-1,3.44,2.1,4,4.02,2.19,7.96-6.76,14.66-14.15,29-21.31,43.47-2.17,4.38-4.25,8.95-5.85,13.69,3.67-3.86,6.05-8.57,8.8-13.01,7.89-12.74,15.67-25.54,23.51-38.31.78-1.28,1.49-3.01,3.51-2.09,2.31,1.06,1.15,2.86.56,4.3-3.58,8.7-8.88,16.46-13.57,24.55-5.9,10.18-12.01,20.24-18.15,30.27-2.5,4.08-5.71,7.76-7.94,11.97-4.01,7.6-9.15,14.49-14.41,21.07-6.12,7.65-10.51,16.7-18.19,23.1-1.08.9-.74,1.99-.53,3.3,10.4-11.07,19.86-22.63,28.69-34.77,9.06-12.46,17.69-25.2,26.37-37.92,7.09-10.4,14.02-20.9,20.95-31.4.83-1.26,1.37-2.75,1.89-4.19.61-1.69,1.56-2.73,3.44-2.1,1.85.61,2.66,2.05,2.22,3.93-.26,1.1-.76,2.21-1.38,3.16-11.55,17.88-22.32,36.24-34.45,53.76-8.61,12.43-17.12,24.92-26.41,36.86-1.83,2.36-4.82,3.89-5.55,7.67,2.2-.65,3.71-.95,5.13-3.05,1.31-1.94,2.38-4.84,5.71-5.18,1.34-.14.7-2.46,1.76-3.6,4.94-5.29,9.92-10.69,14.26-16.34,4.96-6.46,10.66-12.41,14.56-19.86,5.28-10.08,11.77-19.55,18.48-28.8,3.63-5,6.79-10.26,9.82-15.63.71-1.26,1.05-4.03,3.17-2.99,2.37,1.16.31,3.16-.31,4.63-3.16,7.5-7.57,14.36-12.23,20.92-6.87,9.66-12.08,20.28-18.48,30.19-4.05,6.27-8.86,11.91-13.57,17.65-1.09,1.32-2.5,2.51-2.43,5.35,6.95-9.07,15.05-16.11,21.18-24.84,9.23-13.16,18.92-26,27.32-39.72.86-1.4,1.32-3.05,2.04-4.54.55-1.14,1.41-1.86,2.79-1.34,1.43.53,1.46,1.77,1.19,2.9-.81,3.41-2.5,6.45-4.21,9.47-4.47,7.9-10.11,15.04-14.97,22.66-4.84,7.59-9.83,15-15.32,22.13-2.66,3.46-6.33,6.06-8.33,10.04-2.53,1.66-4.31,3.95-5.74,6.59,2.25-1.16,4.17-2.68,5.96-4.42,1.2-1.16.73-1.63-.35-2.22,5.38.28,5.51-5.67,9.08-7.64,4.69-2.59,6.24-8.25,11.02-11.19,2.63-1.62,4.22-5.54,6.34-8.38,6.58-8.79,13.22-17.58,18.7-27.15.61-1.06.8-3.09,2.94-1.96,1.79.95,1.65,2.43.94,3.95-.97,2.09-1.9,4.22-3.09,6.19-7.6,12.61-15.85,24.68-25.96,35.54-7.57,8.13-14.91,16.47-23.93,24.74,3.9-.54,5.37-2.87,7.06-4.44,15.57-14.5,31.72-28.47,43.65-46.39,1.99-2.99,3.69-6.17,5.55-9.25.66-1.1.79-3.25,2.76-2.33,1.97.92,1.39,2.68.65,4.33-2.89,6.49-6.73,12.38-10.92,18.1-4.55,6.21-9.35,12.19-14.75,17.67-5.07,5.15-10.12,10.33-15.37,15.3-1.25,1.18-3.45,1.29-3.9,3.5-.14.68-1.06,1.35.08,1.87.55.25,1.18.27,1.72-.33,5.29-5.89,11.85-10.36,17.46-15.94,5.71-5.67,11.58-11.18,17.12-17.03,4.07-4.29,7.79-8.86,11.11-13.77.84-1.24,1.51-3.42,3.73-2.32,2.41,1.19,1.21,3.23.46,4.68-3.1,5.95-7.02,11.33-11.72,16.14-2.83,2.9-5.47,5.98-8.37,8.81-3.13,3.05-6.28,6.15-9.8,8.7-1.8,1.3-2.86,3.16-4.76,4.49-5.4,3.77-8.74,9.92-15.23,12.91-2.25,1.04-4.24,4.26-6.71,5.96-9.78,6.74-18.49,15.01-28.98,20.69-6.51,3.52-11.42,9.01-17.9,12.81,1.61,1.07,2.45.14,3.42-.39,9.17-4.96,18.14-10.29,27.16-15.48,3.69-2.12,7-5.5,10.7-8.03,13.02-8.91,25.89-18.04,37.92-28.27,7.2-6.12,14.26-12.42,20.7-19.36,2.25-2.43,5.05-4.39,6.57-7.5.39-.81,1.1-1.53,2.18-1.16,1.22.42,1.84,1.43,1.89,2.66.04,1.2-.55,2.25-1.32,3.14-6.09,7.11-12.07,14.31-19.26,20.4-5.35,4.53-10.39,9.43-15.85,13.8-7.21,5.77-14.58,11.35-22.09,16.72-8.28,5.92-16.83,11.46-25.18,17.27-1.33.93-3.29.82-4.3,2.88,1.97.58,3.26-.73,4.49-1.42,19.71-11.08,38.06-24.24,56.45-37.32,10.58-7.52,21.1-15.1,29.6-25.06.48-.56,1-1.34,1.9-.87.91.48,1.1,1.39.92,2.34-.35,1.84-1.48,3.28-2.62,4.66-6.28,7.57-13.86,13.7-21.74,19.49-5.03,3.7-10.19,7.23-15.22,10.93-12.46,9.17-25.03,18.19-38.27,26.22-.29.18-.49.51-.87.92,1.63.89,2.84,0,3.99-.59,10.6-5.43,21.69-10.12,31.64-16.55,14.52-9.38,29.17-18.65,42.7-29.52,1-.8,2.15-3.19,3.59-1.69,1.39,1.45.58,3.41-.93,5.11-4.5,5.05-10.1,8.7-15.52,12.57-6.54,4.67-12.89,9.67-19.8,13.71-4.95,2.9-9.05,7.36-14.48,9.03-4.35,1.33-6.8,5.01-10.82,6.52,2.97.71,5.49-.55,8.02-1.38,12.91-4.25,24.64-10.78,35.8-18.5,5.17-3.58,10.47-6.95,15.36-10.93,1.12-.91,2.4-2.38,3.89-.45,1.35,1.76.39,3.11-.95,4.33-4.49,4.05-9.26,7.76-14.34,11.02-8.57,5.49-16.76,11.7-26.25,15.59-10.86,4.45-21.76,8.69-33.24,11.58-6.13,1.54-12.2,3.42-18.45,4.59-.27.05-.48.49-1.29,1.36,34.84-4.19,67.23-12.72,94.62-34.99,1.3,3.24,1.11,4.12-1.98,6.86-7.44,6.61-15.77,11.93-24.61,16.44-7.79,3.98-15.98,6.98-24.26,9.75-1.19.4-2.42.69-3.67,2.36,11.49-2.23,22.2-4.85,32.78-8.09,8.21-2.52,15.49-6.75,22.65-11.3,1.04-.66,2.33-2.48,3.56-.83,1.01,1.36.02,2.93-1.2,4.06-7.14,6.58-15.56,10.78-24.74,13.72-9.17,2.94-18.52,5.13-27.85,7.44-.95.23-2.06.2-2.96,1.55,4.25,0,8.24.32,12.16-.07,7.1-.71,14.23-1.3,21.26-2.76,6.88-1.42,13.34-3.62,19.02-7.92.95-.72,2.39-2.82,3.83-.89,1.31,1.75.11,3.39-1.3,4.71-7.27,6.8-16.25,9.56-25.8,11.05-17.41,2.72-34.97,3.42-52.54,4.08-3.4.13-6.75.26-10.83.77,1.77,1.45,3.33,1.16,4.66,1.19,12.83.28,25.66,1.09,38.48.4,12.01-.65,24.22.03,35.74-4.5,2.27-.89,4.47-1.95,6.73-2.88,1.29-.53,2.81-1.38,3.65.49.71,1.59-.37,2.69-1.65,3.47-6.12,3.72-12.72,6.19-19.79,7.17-19.17,2.65-38.44,2.68-57.73,2.01-7.43-.26-14.87-.42-22.26-1.08-11.11-.98-22.15-2.64-33.35-2.67-6.72-.02-13.37.27-19.84,2.26-.98.3-2.07.5-2.86,1.09-2.37,1.78-5.52,2.98-5.57,6.71-.08,5.23,1.96,9.27,6.78,11.57,7.04,3.36,14.5,5.18,22.27,5.67,16.14,1.03,32.09-.99,48.01-3.21,20.9-2.92,41.72-3.44,62.45,1.35,6.58,1.52,13.23,2.71,19.45,5.52,1.02.46,1.86.76,2.07,1.94.3,1.74,1.24,2.74,3.07,2.9.8.07,1.54.43,1.48,1.42-.06.89-.77,1.29-1.52,1.54-1.15.38-2.28.23-3.39-.2-16.27-6.16-33.28-8.29-50.51-9.23-10.53-.57-20.9,1.09-31.33,1.92-1.37.11-2.73.43-4.46.71,1.35,1.38,2.99,1.09,4.23.97,16.13-1.51,31.64,1.6,47.04,5.88,7.42,2.06,14.68,4.58,21.94,7.13,5.41,1.9,10.9,3.55,16.34,5.38,3.27,1.1,4.47,5.75,2.19,8.19-.88.94-1.65.29-2.4-.14-4.89-2.82-10.59-3.57-15.63-6.31-2.88-1.56-6.98-1.61-10.47-2.69-3.31-1.02-6.66-1.89-9.83-3.36-5.09-2.35-10.72-2.55-16.09-3.83-3.47-.83-7.26-.58-10.56-1.77-5.4-1.96-10.83-.4-16.21-1.03-1.81-.21-3.63-.07-4.78-1.85-.49-.75-.95-1.75-2.05-1.32-1.56.61-.42,1.99-.7,2.95-.56,1.97,1.02,1.47,1.72,1.53,9.31.85,18.11,3.77,26.8,6.89,10.1,3.63,20.1,7.52,29.93,11.86,5.26,2.33,10.92,3.79,16.14,6.2,4.38,2.03,8.89,3.69,13.33,5.55,2.03.85,2.43,1.87.38,3.14-1.86,1.15-3.5,3.06-6.1,1.73-8.27-4.2-17.46-5.97-25.86-9.8-4.13-1.88-8.14-4.09-12.2-6.06-2.51-1.22-5.75-1.27-8.6-2.48-5.41-2.3-10.89-4.68-16.58-6.06-7.64-1.85-14.93-5.26-23.01-5.36-2.9-.04-5.8-.82-8.87-.69,7.09,2.16,14.13,4.47,21.27,6.46,12.78,3.55,25.18,8.16,36.77,14.52,8.55,4.69,16.3,10.83,24.79,15.65,4.12,2.34,7.38,5.76,11.57,7.9,2.53,1.29,3.08,4.18,1.42,6.45-1.4,1.92-2.79.52-3.98-.25-7.83-5.09-15.72-10.1-23.38-15.44-11.67-8.15-24.64-13.56-37.81-18.62-1.58-.61-3.07-1.07-3.99-2.71-.42-.75-1.44-1.97-2.47-.89-1.23,1.28.24,1.96,1.05,2.7.09.09.2.18.31.23,8.08,3.68,15.76,8.16,22.8,13.47,4.45,3.36,9.31,6.24,13.93,9.04,6.53,3.96,12.42,8.88,19.2,12.44,4.75,2.5,9.21,5.57,13.7,8.54,1.66,1.1,2.48,2.51-.55,2.98-1.43.22-1.01,2.03-1.9,2.41-27.83-16-53.67-35.09-82.98-48.26,3.66,3.88,8.58,5.85,12.97,8.59,5.56,3.46,10.48,7.9,16.08,11.19,7.17,4.21,13.27,9.79,20.08,14.43,6.13,4.18,12.22,8.6,18.07,13.27,3.98,3.18,8.29,5.96,12.23,9.25,2.57,2.15,2.31,4.23,1.19,6.68-.68,1.5-1.4,2.22-3.1.65-10.82-10.04-23.04-18.22-35.19-26.5-8.98-6.12-17.43-13.03-26.56-18.89-5.89-3.78-11.29-8.4-18.4-11.73,3.42,5.92,8.87,8,13.59,10.87,8.22,5.01,15.03,11.91,23.12,17,5.02,3.16,9.79,6.85,13.75,10.91,8.38,8.59,18.67,14.83,27.03,23.34,1.3,1.32-.07,3.91,2.46,4.34-.78,1.16-1.37,2.54-2.39,3.42-1.27,1.11-1.6-.66-2.26-1.22-6.66-5.61-13.45-11.08-19.88-16.94-10.98-9.99-23.23-18.36-34.77-27.64-4.14-3.33-8.87-5.91-13.34-8.83l-.59.8c2.97,2.21,6,4.35,8.91,6.63,10.68,8.37,21.77,16.25,30.89,26.47,2.62,2.93,5.87,5.15,7.48,9.07.69,1.67,3.08,2.71,4.82,3.86,1.47.97,2.81,2.22,3.08,3.81.45,2.69,3.09,3.43,4.51,4.34,3.42,2.2,4.78,5.87,7.6,8.38.97.87-.03,1.82-1.13,2.26-1.44.57-2.52,1.61-3.34,2.81-7.24-8.71-14.88-16.79-22.73-24.68-2.41-2.42-5.28-4.53-6.49-7.93-.56-1.56-2.37-2.05-3.3-2.66-6.02-3.96-11.56-8.24-15.96-14.04-1.26-1.66-3.77-2.11-6.35-2.58,1.57,3.21,4.65,4.33,6.7,6.5,8.68,9.22,17.28,18.49,25.49,28.15,6.23,7.33,12.71,14.46,18.78,21.94,1.5,1.85,3.76,3.68.4,5.98-1.32.9-1.99,1.19-3.47-.11-2.04-1.78-3.91-3.6-5.58-5.74-11.32-14.53-23.68-28.17-36.33-41.53-4.46-4.71-9.78-8.61-14.74-12.84-.53-.45-1.11-1.08-2.14-.71.85,2.3,2.89,3.48,4.42,5.12,9.96,10.66,20.23,21.06,29.69,32.14,8.62,10.1,16.42,20.91,24.43,31.52.98,1.29,2.78,2.93.96,5.09-2.61,3.09-3.78,3.08-6.07-.32-5.14-7.66-11.12-14.7-16.57-22.13-8.43-11.49-18.58-21.42-28.12-32.21-.94,2.43.66,3.63,1.68,4.98,2.45,3.25,5.35,6.08,7.66,9.5,2.89,4.28,7.15,7.66,9.86,12.03,4.27,6.88,10.18,12.7,12.78,20.77.79,2.44,1.63,5.2,2.94,7.45,1.29,2.21,4.5,2.97,5.33,5.95.48,1.71,1.58,3.23,2.2,4.91.89,2.4-.23,4.12-2.44,4.88-2.1.72-3.22-.53-3.99-2.51-7.46-19.05-19.74-35.02-32.53-50.65-5.92-7.23-11.91-14.38-19.09-20.89.58,2.62,1.93,4.12,5.89,8.12,2.73,2.77,5.65,5.33,7.55,8.98,1.06,2.04,3.91,3.03,5.09,5.47,2.65,5.51,7.75,9.29,10.62,14.68,1.93,3.63,5.98,6.06,6.02,10.78.01,1.58,1.89,2.2,2.29,3.37,2.95,8.56,8.32,15.8,12.65,23.59,1.89,3.41.11,5.73-1.57,7.88-1.34,1.71-2.46.58-3.04-1.39-5.3-17.7-15.54-32.7-26.15-47.48-.11-.16-.46-.15-1.43-.43,1.91,2.97,3.49,5.48,5.13,7.95,1.5,2.25,3.58,4.45,2.95,7.29-.48,2.17,1.53,1.21,2.08,2.32,1.8,3.58,3.21,7.37,5.47,10.75,1.52,2.26-.74,3.35-2.26,4.47,4.45,3.78,7.72,8.1,7.22,14.31-.2,2.59.13,5.16-.65,7.78-.49,1.67-1.35,3.29-2.64,3.2-1.7-.12-3.71.13-4.81-2.63-5.46-13.83-10.1-28.06-17.95-40.81-9.4-15.26-20.65-29.06-34.37-40.66-2.26-1.91-4.09-4.44-7.49-6.21,1.74,4.2,5.15,5.94,7.66,8.38,2.84,2.77,5.23,5.8,7.04,9.27,1.18,2.26,2.5,4.26,4.69,5.66,2.97,1.89,4.22,5.24,5.7,8.07,2.69,5.13,6.75,9.55,8.42,15.17,1.48,5,5.21,8.89,6.38,14.1.53,2.35,2.55,4.42,3.57,6.88,2.92,7,6.22,13.84,9.38,20.74.53,1.16,1.44,2.27,1.21,3.59-.27,1.55-.43,2.52,1.52,3.31,1.13.46.79,2.52.35,4.15-.98-.76-1.43-3.28-3.09-.16-1.41,2.64-3.48-.02-4.07-1.59-4.11-10.8-8.88-21.32-13.63-31.83-5.27-11.69-10.8-23.3-18.23-33.85-.33-.47-.78-.87-1.27-1.4-1.21,1.5-.13,2.66.44,3.19,3.89,3.57,5.05,8.54,7.29,13,2.18,4.34,4.35,8.68,6.25,13.13,2.41,5.67,4.75,11.38,6.67,17.26,1.59,4.86,3.85,9.5,5.63,14.31,1.5,4.06,2.78,8.2,4.04,12.34.48,1.59.65,3.25-.16,4.87-.77,1.54-2.38,1.4-3.61,1.67-1.58.34-2.1-1.21-2.48-2.43-3.8-12.39-8.03-24.64-12.86-36.67-6.58-16.39-13.72-32.52-23.94-47.06-.35-.49-.79-.93-1.75-2.05,1.04,4.97,4.01,8.04,5.97,11.47,3.75,6.58,7.2,13.09,8.15,20.69.04.31.44.84.45.84,2.79-1.44,2.58,1.26,2.95,2.4,5.99,18.7,11.84,37.44,17.86,56.13.59,1.84-1.01,1.38-1.43,2.11-.68,1.19-1.62,2.08-3.13,1.1-1.08-.7-2.22-1.32-2.57-2.72-2.02-8.03-5.48-15.59-7.35-23.7-.96-4.16-3.64-7.8-4.63-12.11-.57,1.69-.65,3.18-.09,4.92,2.51,7.88,5.14,15.76,6.92,23.82.57,2.57,1.09,5.06,2.01,7.55,1.01,2.75-1.65,3.31-3.22,3.82-1.92.62-3.27-.48-3.8-2.7-2-8.37-4.22-16.69-6.26-25.06-5.64-23.17-13.49-45.5-25.32-66.29-.54-.95-.84-2.17-2.8-2.89,2.54,4.3,3.77,8.51,5.27,12.62,2.79,7.64,5.31,15.38,8.15,22.99,2.86,7.67,5.09,15.6,6.32,23.58,1.07,6.97,3.24,13.63,4.32,20.54,1.02,6.46,1.71,12.97,2.56,19.46.15,1.16.23,2.31-.28,3.41-.55,1.18-1.1,2.44-2.68,2.38-1.32-.05-2.07-.96-2.46-2.13-.53-1.58-1.43-3.18-1.42-4.77.02-9.42-2.87-18.4-4.26-27.59-1.59-10.52-4.56-20.92-7.94-31.11-3.99-12.05-7.73-24.18-13.04-35.74-.26-.56-.55-1.11-1.22-1.55,1,4.31,2.31,8.49,2.9,12.89.94,7.02,3.17,13.73,6.36,20.13,2.17,4.35,3.06,9.12,3.91,13.93.32,1.83,1.14,3.94,1.87,5.62,2.1,4.78,1.53,9.8,2.59,14.59,1.75,7.85,1.59,16.01,4,23.7,1.33,4.25,1.26,8.54,1.31,12.87.02,2.12-.12,4.64-2.66,4.86-2.71.23-3.42-2.29-3.73-4.51-1.56-11.33-3.48-22.62-4.46-34-.85-9.84-3.7-19.14-6.36-28.47-5.1-17.87-10.38-35.69-18.48-52.52-4.28-8.9-8.26-17.94-12.37-26.93-.27-.59-.48-1.19-1.46-1.42-.95,1.2-.24,2.2.4,3.3,4.21,7.32,6.62,15.38,9.41,23.27,2.54,7.19,4.89,14.46,7.57,21.6,4.28,11.39,8.83,22.62,11.46,34.63,1.72,7.84,3.61,15.52,3.76,23.59.04,1.92,1.13,3.85,1.52,5.89,2,10.34,3.63,20.7,4.17,31.23.1,1.86-.08,3.18-1.88,4.15-3.84,2.06-4.92,1.56-5.16-2.76-1.04-19.53-3.02-38.95-7.4-58.03-2.24-9.74-4.39-19.55-8.99-28.65.59,2.72,1.08,5.43,1.36,8.19.28,2.75,1.66,5.37,2.25,8.11,1.94,9.04,3.36,18.18,3.8,27.42.11,2.33.92,4.45,1.32,6.63,1.64,8.8,2.53,17.58,1.72,26.51-.06.63-.17,1.35.05,1.9,2.16,5.29-.74,8.1-5.75,10.7-.4-17.49-1.75-34.52-4.13-51.52-2.39-17-6.19-33.5-12.32-49.54,2.1,8.96,1,18.23,3.36,27.24,2.14,8.14,3.02,16.64,4.07,25.03,1.25,10.03,2.11,20.11,3.09,30.18.52,5.35,1.09,10.7,1.38,16.06.36,6.64.25,6.64-6.81,9.27-.86-18.83-1.68-37.56-4.64-56.05-2.96-18.48-4.64-37.19-9.36-56.3-1.21,3.83.24,6.55.48,9.33,1.09,12.63,2.7,25.2,3.22,37.89.37,8.91,2.55,17.77,2.66,26.67.12,10.06,1.05,20.13.46,30.19-.22,3.66-3.37,6.38-4.24,10.12-2.18-44.93-5.62-89.56-14.29-133.65-.91,2.34-.63,4.72-.29,7.02,2.34,15.76,4.7,31.54,5.51,47.45.88,17.33,2.28,34.62,3.21,51.94.44,8.31-.17,16.67-.36,25.01-.05,2.28-4.08,6.35-6.23,6.37-1.77.01-1.08-1.4-1.07-2.23.04-8.49.12-16.97.24-25.46.04-3.1-.42-6.13-.97-9.34-1.59,9.94-1.64,19.78-1.61,29.62.01,3.33-1.2,5.68-4.25,7.01-2.09.91-3.22.34-3.05-2.12,1-14.07,1.75-28.16,1.71-42.28-.04-13.61-.4-27.22-.44-40.82-.05-17.87-2.48-35.55-3.86-53.32-.09-1.13-.09-2.3-1.05-3.52-1.42,6.78-.07,13.3-.31,19.79-.3,8.32-1.2,16.73-.31,24.94,1.07,9.92.7,19.8.88,29.68.13,6.84-.99,13.73-.7,20.63.14,3.33,1.21,6.71.83,9.95-1.32,11.46.1,22.86.15,34.29.01,2.85-1.2,4.03-3.66,4.35-2.05.27-3.03.3-3.02-2.89.11-18.12,1.68-36.22.6-54.37-.64-10.75-.35-21.56-.34-32.35,0-3.48-.4-6.9-.99-10.35-1.19,5.65-1.3,11.45-1.11,17.13.48,14.29-.54,28.52-1.12,42.77-.46,11.45-.35,22.88.51,34.3.11,1.49,1.37,4.19-1.9,3.65-1.97-.33-5.65,2.32-5.5-3.13.19-6.56-.14-13.24.33-19.7.28-3.85-1.78-7.33-.53-11.02.2-.59.1-1.32.4-1.84,1.18-2.01,1.51-3.84.11-6-.8-1.24-1.07-3.13-.32-4.49,3.34-6.06.84-12.39,1.09-18.58.1-2.55.19-5.02.95-7.56.56-1.87,1.15-3.93-.17-6.29-.89-1.58-1.95-4.49.98-6.44.61-.41.26-3.29-.49-4.51-2.59-4.17-.58-7.98.76-11.66.83-2.28,1.5-4.43.8-6.66-1.37-4.41-.71-8.83.1-13.08,1.12-5.93-.13-11.94,1.18-17.8.49-2.19.22-4.63,2.24-6.26,1.15-.93.3-1.03-.48-1.35-1.82-.76-2.15-1.44.22-1.73.52-.06,1.11.02.41-.78-2.91-3.3-1.97-7.35-2.24-11.33-1.76,2.72-1.95,5.89-2.04,8.79-.33,9.76-2.09,19.37-2.43,29.13-.54,15.78-2.54,31.48-3.19,47.28-.93,22.33-2.43,44.64-3.56,66.96-.13,2.49-1.71,4.36-1.99,6.85-.24,2.07-3.04,1.05-4.74,1.03-1.84-.02-1.45-1.44-1.27-2.55,2.83-17.78,2.41-35.81,4.24-53.68.97-9.42.94-18.93,1.46-28.4.24-4.44.71-8.87.86-13.36-1.15,1.86-1.26,3.99-1.59,6.06-3.32,20.92-6.84,41.81-7.93,63.02-.42,8.19-1.68,16.34-2.33,24.53-.26,3.25-2.02,3.19-4.47,3.02-2.79-.19-3.47-1.39-2.99-3.99,2.99-16.3,4.43-32.8,5.58-49.28.5-7.25,2.77-14.05,3.49-21.13,1.31-12.89,4.62-25.49,5.14-38.5.14-3.57.39-7.36,2.02-10.85,1.84-3.93.44-8.1.38-12.18-2.78,6.65-3,13.78-4.3,20.68-1.56,8.32-3.01,16.66-4.34,25.02-2,12.55-3.88,25.13-5.77,37.7-1.49,9.89-3.05,19.78-4.32,29.71-.65,5.09-.84,10.24-1,15.37-.08,2.78-.85,5.04-3.86,4.88-2.85-.16-2.99-2.55-2.77-4.95,1.99-21.77,4.6-43.45,8.22-65.03,1.55-9.23,2.85-18.51,4.57-27.72,2.97-15.88,5.93-31.75,8.81-47.65.96-5.3,1.53-10.66,3.31-15.81.4-1.14.82-2.68-.4-4.25-2.07,7.66-4.32,14.98-5.63,22.55-2,11.63-6.09,22.77-7.95,34.44-.75,4.71-2.61,9.22-3.39,13.84-.78,4.59-1.15,9.36-1.9,13.98-.59,3.66-.23,7.81-3.26,10.84-.22.22-.02.95.09,1.43.73,3.18,2.07,6.45-1.48,8.94-.15.1-.11.85.05.95,2.4,1.46.14,3.38.35,5.09-.15-.43-.3-.86-.45-1.29,1.95,4.77-1.4,8.96-2.48,12.98-2.13,7.94-1.3,16.23-4.01,23.91-1.35,3.83-.82,7.82-1.35,11.71-.44,3.18-2.53,2.27-3.77,2.46-2.4.38-1.17-1.68-1.09-2.66,1.16-13.85,3.92-27.47,5.98-41.2,1.49-9.96,2.67-19.98,4.19-29.94,1.98-12.94,4.31-25.82,7.39-38.56,1.53-6.34,3.5-12.59,4.15-19.45-1.66.45-1.57,1.73-1.82,2.69-7.07,27.87-13.38,55.88-17.86,84.32-2.11,13.43-4.95,26.79-7.37,40.19-.46,2.54-1.12,3.75-3.87,2.18-2.15-1.23-5.05.74-7.19-1.95-1.36-1.71-2.17-2.97-1.4-5.06,2.51-6.76,3.09-13.98,4.91-20.89,1.85-7.03,2.61-14.24,4.14-21.25,2.03-9.32,3.02-18.86,5.62-28.07.49-1.72,2.56-3.09,1.28-5.56-2.73,2.15-2.91,5.43-3.85,8.13-6.13,17.46-12.02,34.98-14.95,53.37-1.04,6.56-3.18,12.96-5.04,19.36-.3,1.02-.19,3.91-2.63,2.44-1.83-1.11-4.52-1.97-3.19-5.54,2.31-6.18,5.04-12.29,4.83-19.18-.05-1.72.68-3.53,1.34-5.18,2.01-4.95,2.47-10.13,2.05-15.62-2.02,4.43-4.32,8.76-5.99,13.32-2.43,6.61-5.68,12.89-7.63,19.69-.3,1.06-1.02,3.01-2.56,1.98-1.91-1.28-5.3-2.08-4.1-5.53,1.21-3.49,2.66-6.94,4.44-10.18,4.18-7.63,6.62-15.96,10.03-23.88,4.29-9.94,6.88-20.61,11.94-30.09,1.91-3.57,2.42-7.42,4.32-10.92,2.08-3.82,3.68-8.06,5.27-12.23,1.02-3.97,3.93-7.25,4.04-11.54-.42,4.19-4.91,6.94-4,11.61m190.75-31.46c.19-.17.38-.33.57-.5-.39-.48-.75-.98-1.17-1.43-13.77-14.74-29.33-27.43-45.16-39.88-8.75-6.88-17.82-13.42-25.71-21.37-3.18-3.2-6.69-6.06-10.05-9.08-.23.23-.45.45-.68.68,3.74,4.59,7.77,8.9,12.1,12.99,11.16,10.56,22.81,20.5,35.43,29.32,6.16,4.31,12.03,9.08,17.78,13.94,5.79,4.91,11.27,10.2,16.88,15.32m-235.03,62c18.97-30.49,35.58-62.28,52.61-93.85-20.33,29.74-36.84,61.58-52.61,93.85m-4.92-70.82c13.44-13.15,26.7-26.47,38.9-40.8-14.19,12.44-26.8,26.38-38.9,40.8m212.2,74.44c.05,4.06-.01,7.11,1.6,9.9.52.9,1.14,1.48,2.12,1.1.79-.31,1.21-1.58.76-1.9-2.86-2.07-2.1-5.82-4.47-9.1m-7.96-19.08c.91,2.78,1.73,5.66,2.1,8.65.15,1.16.79,1.57,1.85,1.35,1.12-.23.68-1.1.71-1.84.15-3.62-3.78-4.95-4.66-8.16M170.74,151.51c-.82-3.65.02-7.84-3.83-11.18.8,4.34,1.92,7.89,3.83,11.18m113.83,34.33c1.65-.64,2.9-1.62,2.84-3.58-.02-.68.23-1.95-.8-1.74-2.02.42-2.32,2.46-2.95,4.07-.25.65.04,1.23.9,1.24m14.27,1.98c.74-1.71-.4-3.63,1.16-5.08.82-.76-.26-1.28-1.06-1.28-.78,0-2.18-.45-2.03.88.21,1.82-.4,4.07,1.93,5.48"/></g><path class="cls-3" d="m124.07,227.49h1.1c.18,4.06,1.13,6.99,2.86,8.77s3.72,2.67,5.98,2.67c1.92,0,3.58-.64,4.98-1.92s2.11-2.88,2.11-4.79c0-1.4-.31-2.65-.94-3.77-.63-1.12-1.75-2.43-3.36-3.93-2.6-2.45-4.36-4.43-5.28-5.93s-1.38-3.26-1.38-5.26c0-2.79,1-5.27,3.01-7.44,2-2.17,4.31-3.25,6.9-3.25,3.04,0,5.32,1.54,6.82,4.62.73-1.16,1.29-2.49,1.67-3.97h1.1l-1.42,10.69h-1.21c-.02-2.54-.36-4.51-1.03-5.89-.67-1.39-1.53-2.44-2.58-3.17-1.05-.73-2.21-1.09-3.48-1.09-1.88,0-3.38.72-4.51,2.16s-1.69,3.08-1.69,4.93c0,1.5.38,2.82,1.16,3.93.77,1.12,2.25,2.68,4.43,4.69,2.54,2.34,4.14,4.27,4.78,5.77s.97,3.03.97,4.57c0,3.04-1.1,5.55-3.3,7.52s-4.67,2.95-7.41,2.95c-3.29,0-6.11-1.59-8.43-4.78-.82,1.09-1.42,2.33-1.8,3.71h-1.34l1.32-11.76Z"/><path class="cls-3" d="m175.36,205.58l-8.25,27.12c-.52,1.7-.78,2.77-.78,3.2,0,.9.39,1.54,1.17,1.95.78.4,1.65.6,2.62.6h.97l-.38,1.24h-15.6l.38-1.24h.81c1.13,0,2.09-.19,2.89-.58s1.36-.86,1.69-1.42c.33-.56.79-1.79,1.38-3.69l8.38-27.5c-2.97-.27-5.5-.4-7.57-.4-2.26,0-3.95.19-5.08.56s-1.69.94-1.69,1.69c0,.29.1.69.29,1.21.18.5.27.88.27,1.13,0,.48-.17.9-.52,1.25-.35.35-.8.52-1.36.52-.7,0-1.24-.27-1.62-.81-.38-.54-.58-1.14-.58-1.8,0-1.43.81-2.68,2.43-3.75,1.62-1.06,4.47-1.6,8.55-1.6,2.09,0,6.07.24,11.92.72,4.19.36,7.33.54,9.43.54s3.12-.53,3.33-1.58c.14-.75.52-1.13,1.13-1.13.86,0,1.29.46,1.29,1.37,0,1.95-2.07,2.93-6.2,2.93-1.97,0-5.07-.18-9.29-.54Z"/><path class="cls-3" d="m216.37,203.27h11.6l-.38,1.24c-1.38.04-2.51.33-3.38.87s-1.53,1.26-1.95,2.15c-.42.89-.96,2.43-1.62,4.63l-4.59,15.12c-.82,2.67-1.51,4.61-2.05,5.81-.55,1.21-1.4,2.39-2.56,3.53s-2.6,2.05-4.31,2.71c-1.71.66-3.6.99-5.68.99-4.17,0-7.3-.73-9.39-2.2s-3.13-3.67-3.13-6.61c0-1.04.45-3.04,1.34-5.99l4.78-15.74c.54-1.79.81-2.92.81-3.38,0-1.27-1.15-1.91-3.46-1.91h-.83l.38-1.24h14.88l-.38,1.24h-.81c-1.25,0-2.22.16-2.91.47-.69.31-1.19.74-1.52,1.29-.32.55-.84,1.96-1.56,4.26l-4.67,15.44c-.97,3.19-1.45,5.31-1.45,6.36,0,2.2.83,3.87,2.5,5s3.65,1.69,5.96,1.69c2.17,0,4.19-.5,6.08-1.5,1.89-1,3.27-2.26,4.15-3.77.88-1.51,1.75-3.72,2.63-6.62l4.62-15.2c.77-2.51,1.15-4.02,1.15-4.54,0-1.52-1.54-2.48-4.62-2.87l.38-1.24Z"/><path class="cls-3" d="m230.87,203.27h2.63c1.52,0,3.38-.04,5.56-.11,2.08-.09,3.54-.13,4.38-.13,3.49,0,6.45.65,8.88,1.96s4.23,3.23,5.42,5.76,1.79,5.22,1.79,8.07c0,2.56-.51,5.17-1.54,7.82-1.03,2.65-2.45,4.93-4.26,6.83-1.81,1.91-3.75,3.32-5.83,4.24s-3.99,1.48-5.73,1.68c-1.75.2-4.27.29-7.56.29h-14.64l.38-1.24h1.56c1.11,0,2.05-.2,2.81-.6.76-.4,1.28-.87,1.57-1.4.29-.53.7-1.69,1.24-3.48l7.04-23.18c.54-1.79.81-2.92.81-3.38,0-1.27-1.16-1.91-3.46-1.91h-1.4l.38-1.24Zm10.18,1.02l-8.67,28.52c-.5,1.67-.75,2.71-.75,3.14,0,1.72,1.83,2.58,5.51,2.58,5.57,0,9.86-2.27,12.88-6.82,3.02-4.55,4.53-9.4,4.53-14.55,0-3.83-.94-6.96-2.82-9.37s-4.74-3.62-8.57-3.62c-.59,0-1.29.04-2.09.13Z"/><path class="cls-3" d="m273.92,238.45l-.38,1.24h-15.36l.38-1.24h.83c1.11,0,2.05-.2,2.82-.6.77-.4,1.29-.87,1.57-1.4.28-.53.69-1.69,1.22-3.48l7.01-23.18c.55-1.79.83-2.91.83-3.36,0-1.29-1.16-1.93-3.46-1.93h-.97l.38-1.24h14.31l-.38,1.24h-.75c-.86,0-1.64.15-2.34.46-.7.3-1.2.73-1.49,1.26-.3.54-.78,1.92-1.46,4.16l-6.79,22.32c-.52,1.7-.78,2.78-.78,3.22,0,.88.38,1.52,1.14,1.92.76.4,1.63.6,2.62.6h1.05Z"/><path class="cls-3" d="m283,225.74c0-3.4,1.02-7.07,3.05-11,2.03-3.93,4.57-6.93,7.61-9.01s5.99-3.12,8.84-3.12c1.49,0,3.13.39,4.93,1.18,1.8.79,3.37,2.35,4.7,4.67,1.33,2.33,2,5.16,2,8.49,0,5.8-1.98,11.15-5.93,16.03-3.96,4.89-8.28,7.33-12.97,7.33-3.49,0-6.4-1.27-8.73-3.81-2.33-2.54-3.49-6.13-3.49-10.77Zm4.81,2.71c0,2.54.24,4.5.73,5.88.48,1.38,1.3,2.52,2.44,3.44,1.15.91,2.52,1.37,4.14,1.37,2.52,0,4.87-1.24,7.05-3.73,2.17-2.49,3.96-5.96,5.36-10.42,1.4-4.46,2.09-8.26,2.09-11.41s-.68-5.64-2.03-7.26c-1.35-1.62-3.08-2.43-5.2-2.43-2.47,0-4.81,1.19-7.01,3.57s-4.01,5.7-5.44,9.96c-1.42,4.26-2.13,7.94-2.13,11.04Z"/><path class="cls-6" d="m217.18,258.49c0-.07.03-.13.08-.18s.11-.08.18-.08.13.03.18.08.08.11.08.18-.03.13-.08.18c-.05.05-.11.08-.18.08s-.13-.03-.18-.08c-.05-.05-.07-.11-.07-.18Z"/><path class="cls-3" d="m177.45,308.67l.59,1.26c-1.99,1.5-4.02,2.26-6.1,2.26s-3.66-.63-4.7-1.88c-1.04-1.25-1.56-3.26-1.56-6.02l.03-2.2c0-2.49-.21-4.25-.64-5.29s-1.03-1.74-1.8-2.09c-.77-.36-2.01-.54-3.71-.54h-1.34l-3.22,10.53c-.54,1.75-.81,2.81-.81,3.17,0,.95.39,1.62,1.17,2,.78.38,1.63.58,2.56.58h.75l-.38,1.24h-14.74l.38-1.24h.59c1.11,0,2.05-.2,2.82-.6.77-.4,1.29-.87,1.57-1.4.28-.53.68-1.69,1.22-3.48l7.04-23.18c.54-1.79.81-2.92.81-3.38,0-.63-.27-1.1-.81-1.42s-1.58-.48-3.14-.48l.38-1.24h9.53c2.65,0,4.63.07,5.95.2,1.32.13,2.66.57,4.04,1.32s2.44,1.71,3.18,2.91c.74,1.2,1.11,2.54,1.11,4.03,0,2.79-1.14,5.12-3.42,6.98-2.28,1.86-5.91,2.87-10.89,3.01,2.61.95,4.43,2.25,5.45,3.89s1.59,3.94,1.72,6.88c.09,2.24.32,3.74.7,4.51s1.09,1.15,2.15,1.15c.91,0,2.09-.49,3.52-1.48Zm-18.85-15.66h1.07c4.58,0,8.01-.88,10.29-2.63,2.27-1.75,3.41-4.21,3.41-7.36,0-2.22-.69-3.88-2.08-4.98-1.39-1.1-3.47-1.65-6.24-1.65-.43,0-.9.02-1.4.05l-5.05,16.57Z"/><path class="cls-3" d="m181.49,297.74c0-3.4,1.02-7.07,3.05-11,2.03-3.93,4.57-6.93,7.61-9.01s5.99-3.12,8.84-3.12c1.49,0,3.13.39,4.93,1.18,1.8.79,3.37,2.35,4.7,4.67,1.33,2.33,2,5.16,2,8.49,0,5.8-1.98,11.15-5.93,16.03-3.96,4.89-8.28,7.33-12.97,7.33-3.49,0-6.4-1.27-8.73-3.81-2.33-2.54-3.49-6.13-3.49-10.77Zm4.81,2.71c0,2.54.24,4.5.73,5.88.48,1.38,1.3,2.52,2.44,3.44,1.15.91,2.52,1.37,4.14,1.37,2.52,0,4.87-1.24,7.05-3.73,2.17-2.49,3.96-5.96,5.36-10.42,1.4-4.46,2.09-8.26,2.09-11.41s-.68-5.64-2.03-7.26c-1.35-1.62-3.08-2.43-5.2-2.43-2.47,0-4.81,1.19-7.01,3.57s-4.01,5.7-5.44,9.96c-1.42,4.26-2.13,7.94-2.13,11.04Z"/><path class="cls-3" d="m215.65,299.49h1.1c.18,4.06,1.13,6.99,2.86,8.77s3.72,2.67,5.98,2.67c1.92,0,3.58-.64,4.98-1.92s2.11-2.88,2.11-4.79c0-1.4-.31-2.65-.94-3.77-.63-1.12-1.75-2.43-3.36-3.93-2.6-2.45-4.36-4.43-5.28-5.93s-1.38-3.26-1.38-5.26c0-2.79,1-5.27,3.01-7.44,2-2.17,4.31-3.25,6.9-3.25,3.04,0,5.32,1.54,6.82,4.62.73-1.16,1.29-2.49,1.67-3.97h1.1l-1.42,10.69h-1.21c-.02-2.54-.36-4.51-1.03-5.89-.67-1.39-1.53-2.44-2.58-3.17-1.05-.73-2.21-1.09-3.48-1.09-1.88,0-3.38.72-4.51,2.16s-1.69,3.08-1.69,4.93c0,1.5.38,2.82,1.16,3.93.77,1.12,2.25,2.68,4.43,4.69,2.54,2.34,4.14,4.27,4.78,5.77s.97,3.03.97,4.57c0,3.04-1.1,5.55-3.3,7.52s-4.67,2.95-7.41,2.95c-3.29,0-6.11-1.59-8.43-4.78-.82,1.09-1.42,2.33-1.8,3.71h-1.34l1.32-11.76Z"/><path class="cls-3" d="m253.19,310.45l-.38,1.24h-15.36l.38-1.24h.83c1.11,0,2.05-.2,2.82-.6.77-.4,1.29-.87,1.57-1.4.28-.53.69-1.69,1.22-3.48l7.01-23.18c.55-1.79.83-2.91.83-3.36,0-1.29-1.16-1.93-3.46-1.93h-.97l.38-1.24h14.31l-.38,1.24h-.75c-.86,0-1.64.15-2.34.46-.7.3-1.2.73-1.49,1.26-.3.54-.78,1.92-1.46,4.16l-6.79,22.32c-.52,1.7-.78,2.78-.78,3.22,0,.88.38,1.52,1.14,1.92.76.4,1.63.6,2.62.6h1.05Z"/><path class="cls-3" d="m288.96,302.47h1.18l-2.82,9.21h-30.48l.38-1.24h.78c1.11,0,2.05-.2,2.81-.6.76-.4,1.28-.87,1.57-1.4.29-.53.7-1.69,1.24-3.48l7.04-23.18c.54-1.79.81-2.92.81-3.38,0-1.27-1.16-1.91-3.46-1.91h-1.07l.38-1.24h25.97l.13,8.22h-1.13c-.54-2.15-1.24-3.75-2.12-4.79-.88-1.05-1.78-1.67-2.7-1.88-.92-.21-2.8-.31-5.63-.31h-4.73l-4.7,15.58h2.63c2.51,0,4.4-.35,5.69-1.05,1.29-.7,2.49-2.33,3.6-4.89h1.24l-4.32,14.29h-1.24c.2-.95.29-1.86.29-2.74,0-1.47-.18-2.49-.55-3.06-.37-.57-.85-.94-1.46-1.09-.61-.15-1.7-.23-3.28-.23h-2.98l-3.41,11.31c-.54,1.81-.81,2.89-.81,3.25,0,.97.42,1.65,1.25,2.04.83.39,2.28.59,4.34.59h2.12c3.69,0,6.53-.65,8.51-1.95,1.99-1.3,3.63-3.33,4.94-6.08Z"/></svg>